<?xml version="1.0" encoding='UTF-8' standalone='no' ?><!DOCTYPE score-partwise PUBLIC "-//Recordare//DTD MusicXML 3.0 Partwise//EN" "http://www.musicxml.org/dtds/partwise.dtd"><score-partwise version=" 3.0"><work><work-title>惊涛</work-title></work><identification><creator type="composer">陈文达 曲</creator><encoding><software>PPFENG,谱谱风</software><encoding-date>2026-03-10</encoding-date></encoding></identification><defaults><scaling><millimeters>210</millimeters><tenths>1200</tenths></scaling><page-layout><page-height>1698</page-height><page-width>1200</page-width><page-margins type="both"><left-margin>72</left-margin><right-margin>72</right-margin><top-margin>72</top-margin><bottom-margin>72</bottom-margin></page-margins></page-layout><appearance><line-width type="ending">1.5625</line-width></appearance></defaults><part-list><score-part id="P1"><part-name/><part-abbreviation/><score-instrument id="P1-I1"><instrument-name/></score-instrument></score-part></part-list><part id="P1"><measure number="1"><print new-system="yes"><system-layout><system-distance>300</system-distance></system-layout></print><attributes><divisions>480</divisions><key><fifths>0</fifths></key><time><beats>4</beats><beat-type>4</beat-type></time><clef number="1"><sign>G</sign></clef></attributes><note><pitch><step>C</step><octave>5</octave></pitch><duration>480</duration><voice>1</voice><type>half</type><notations><articulations><accent/></articulations></notations></note><note><pitch><step>B</step><octave>4</octave></pitch><duration>240</duration><voice>1</voice><type>eighth</type><notations><articulations><accent/></articulations></notations></note><note><rest/><duration>240</duration><voice>1</voice><type>eighth</type></note><note><rest/><duration>480</duration><voice>1</voice><type>quarter</type></note></measure><measure number="2"><note><pitch><step>A</step><octave>4</octave></pitch><duration>480</duration><voice>1</voice><type>half</type><notations><articulations><accent/></articulations></notations></note><note><pitch><step>G</step><octave>4</octave></pitch><duration>240</duration><voice>1</voice><type>eighth</type><notations><articulations><accent/></articulations></notations></note><note><rest/><duration>240</duration><voice>1</voice><type>eighth</type></note><note><rest/><duration>480</duration><voice>1</voice><type>quarter</type></note></measure><measure number="3"><note><pitch><step>F</step><octave>4</octave></pitch><duration>480</duration><voice>1</voice><type>half</type><notations><articulations><accent/></articulations></notations></note><note><pitch><step>E</step><octave>4</octave></pitch><duration>240</duration><voice>1</voice><type>eighth</type><notations><articulations><accent/></articulations></notations></note><note><rest/><duration>240</duration><voice>1</voice><type>eighth</type></note><note><rest/><duration>480</duration><voice>1</voice><type>quarter</type></note></measure><measure number="4"><note><pitch><step>E</step><octave>4</octave></pitch><duration>240</duration><voice>1</voice><type>eighth</type><beam number="1">begin</beam></note><note><pitch><step>D</step><octave>4</octave></pitch><duration>240</duration><voice>1</voice><type>eighth</type><beam number="1">end</beam></note><note><pitch><step>E</step><octave>4</octave></pitch><duration>240</duration><voice>1</voice><type>eighth</type><beam number="1">begin</beam></note><note><pitch><step>F</step><octave>4</octave></pitch><duration>240</duration><voice>1</voice><type>eighth</type><beam number="1">end</beam></note><note><pitch><step>G</step><octave>4</octave></pitch><duration>240</duration><voice>1</voice><type>eighth</type><beam number="1">begin</beam></note><note><pitch><step>A</step><octave>4</octave></pitch><duration>240</duration><voice>1</voice><type>eighth</type><beam number="1">end</beam></note><note><pitch><step>G</step><octave>4</octave></pitch><duration>240</duration><voice>1</voice><type>eighth</type><beam number="1">begin</beam></note><note><pitch><step>F</step><octave>4</octave></pitch><duration>240</duration><voice>1</voice><type>eighth</type><beam number="1">end</beam></note></measure><measure number="5"><print new-system="yes"><system-layout><system-distance>85</system-distance></system-layout></print><note><pitch><step>E</step><octave>4</octave></pitch><duration>240</duration><voice>1</voice><type>eighth</type><beam number="1">begin</beam></note><note><pitch><step>D</step><octave>4</octave></pitch><duration>240</duration><voice>1</voice><type>eighth</type><beam number="1">end</beam></note><note><pitch><step>C</step><octave>4</octave></pitch><duration>480</duration><voice>1</voice><type>quarter</type></note><note><pitch><step>C</step><octave>4</octave></pitch><duration>240</duration><voice>1</voice><type>eighth</type><notations><articulations><staccatissimo/></articulations></notations></note><note><rest/><duration>240</duration><voice>1</voice><type>eighth</type></note><note><pitch><step>C</step><octave>4</octave></pitch><duration>120</duration><voice>1</voice><type>16th</type><beam number="1">begin</beam><beam number="2">begin</beam></note><note><pitch><step>D</step><octave>4</octave></pitch><duration>120</duration><voice>1</voice><type>16th</type><beam number="1">continue</beam><beam number="2">continue</beam></note><note><pitch><step>E</step><octave>4</octave></pitch><duration>120</duration><voice>1</voice><type>16th</type><beam number="1">continue</beam><beam number="2">continue</beam></note><note><pitch><step>F</step><octave>4</octave></pitch><duration>120</duration><voice>1</voice><type>16th</type><beam number="1">end</beam><beam number="2">end</beam></note></measure><measure number="6"><barline location="left"><bar-style>heavy-light</bar-style><repeat direction="forward"/></barline><note><pitch><step>G</step><octave>4</octave></pitch><duration>480</duration><voice>1</voice><type>quarter</type></note><note><pitch><step>G</step><octave>4</octave></pitch><duration>480</duration><voice>1</voice><type>quarter</type></note><note><pitch><step>E</step><octave>4</octave></pitch><duration>240</duration><voice>1</voice><type>eighth</type></note><note><pitch><step>G</step><octave>4</octave></pitch><duration>480</duration><voice>1</voice><type>quarter</type></note><note><pitch><step>A</step><octave>4</octave></pitch><duration>240</duration><voice>1</voice><type>eighth</type></note></measure><measure number="7"><note><pitch><step>G</step><octave>4</octave></pitch><duration>480</duration><voice>1</voice><type>quarter</type></note><note><rest/><duration>240</duration><voice>1</voice><type>eighth</type></note><note><pitch><step>F</step><octave>4</octave></pitch><duration>240</duration><voice>1</voice><type>eighth</type></note><note><pitch><step>E</step><octave>4</octave></pitch><duration>240</duration><voice>1</voice><type>eighth</type><beam number="1">begin</beam></note><note><pitch><step>F</step><octave>4</octave></pitch><duration>240</duration><voice>1</voice><type>eighth</type><beam number="1">end</beam></note><note><pitch><step>G</step><octave>4</octave></pitch><duration>240</duration><voice>1</voice><type>eighth</type><beam number="1">begin</beam></note><note><pitch><step>C</step><octave>4</octave></pitch><duration>240</duration><voice>1</voice><type>eighth</type><beam number="1">end</beam></note></measure><measure number="8"><note><pitch><step>E</step><octave>4</octave></pitch><duration>240</duration><voice>1</voice><type>eighth</type><beam number="1">begin</beam></note><note><pitch><step>F</step><octave>4</octave></pitch><duration>240</duration><voice>1</voice><type>eighth</type><beam number="1">end</beam></note><note><pitch><step>G</step><octave>4</octave></pitch><duration>480</duration><voice>1</voice><type>quarter</type></note><note><pitch><step>D</step><octave>5</octave></pitch><duration>480</duration><voice>1</voice><type>half</type><notations><articulations><accent/></articulations></notations></note></measure><measure number="9"><print new-system="yes"><system-layout><system-distance>85</system-distance></system-layout></print><note><pitch><step>E</step><octave>5</octave></pitch><duration>480</duration><voice>1</voice><type>half</type><notations><articulations><accent/></articulations></notations></note><note><pitch><step>D</step><octave>5</octave></pitch><duration>240</duration><voice>1</voice><type>eighth</type><beam number="1">begin</beam></note><note><pitch><step>E</step><octave>5</octave></pitch><duration>240</duration><voice>1</voice><type>eighth</type><beam number="1">end</beam></note><note><pitch><step>D</step><octave>5</octave></pitch><duration>240</duration><voice>1</voice><type>eighth</type><beam number="1">begin</beam></note><note><pitch><step>C</step><octave>5</octave></pitch><duration>240</duration><voice>1</voice><type>eighth</type><beam number="1">end</beam></note></measure><measure number="10"><note><pitch><step>A</step><octave>4</octave></pitch><duration>240</duration><voice>1</voice><type>eighth</type><beam number="1">begin</beam></note><note><pitch><step>B</step><octave>4</octave></pitch><duration>240</duration><voice>1</voice><type>eighth</type><beam number="1">end</beam></note><note><pitch><step>A</step><octave>4</octave></pitch><duration>240</duration><voice>1</voice><type>eighth</type><beam number="1">begin</beam></note><note><pitch><step>G</step><octave>4</octave></pitch><duration>240</duration><voice>1</voice><type>eighth</type><beam number="1">end</beam></note><note><pitch><step>E</step><octave>4</octave></pitch><duration>240</duration><voice>1</voice><type>eighth</type><beam number="1">begin</beam></note><note><pitch><step>F</step><octave>4</octave></pitch><duration>240</duration><voice>1</voice><type>eighth</type><beam number="1">end</beam></note><note><pitch><step>E</step><octave>4</octave></pitch><duration>240</duration><voice>1</voice><type>eighth</type><beam number="1">begin</beam></note><note><pitch><step>G</step><octave>4</octave></pitch><duration>240</duration><voice>1</voice><type>eighth</type><beam number="1">end</beam></note></measure><measure number="11"><note><pitch><step>B</step><octave>4</octave></pitch><duration>480</duration><voice>1</voice><type>half</type><dot/></note><note><rest/><duration>240</duration><voice>1</voice><type>eighth</type></note><note><pitch><step>A</step><octave>4</octave></pitch><duration>120</duration><voice>1</voice><type>16th</type><beam number="1">begin</beam><beam number="2">begin</beam></note><note><pitch><step>G</step><octave>4</octave></pitch><duration>120</duration><voice>1</voice><type>16th</type><beam number="1">end</beam><beam number="2">end</beam></note></measure><measure number="12"><note><pitch><step>E</step><octave>4</octave></pitch><duration>480</duration><voice>1</voice><type>quarter</type></note><note><pitch><step>B</step><octave>4</octave></pitch><duration>480</duration><voice>1</voice><type>quarter</type><notations><articulations><accent/></articulations></notations></note><note><pitch><step>E</step><octave>4</octave></pitch><duration>240</duration><voice>1</voice><type>eighth</type><beam number="1">begin</beam></note><note><pitch><step>B</step><octave>4</octave></pitch><duration>240</duration><voice>1</voice><type>eighth</type><beam number="1">end</beam><notations><articulations><accent/></articulations></notations></note><note><rest/><duration>240</duration><voice>1</voice><type>eighth</type></note><note><pitch><step>A</step><octave>4</octave></pitch><duration>240</duration><voice>1</voice><type>eighth</type></note></measure><measure number="13"><print new-system="yes"><system-layout><system-distance>85</system-distance></system-layout></print><note><pitch><step>G</step><octave>4</octave></pitch><duration>480</duration><voice>1</voice><type>quarter</type></note><note><pitch><step>G</step><octave>4</octave></pitch><duration>120</duration><voice>1</voice><type>16th</type><beam number="1">begin</beam><beam number="2">begin</beam></note><note><pitch><step>A</step><octave>4</octave></pitch><duration>120</duration><voice>1</voice><type>16th</type><beam number="1">continue</beam><beam number="2">continue</beam></note><note><pitch><step>B</step><octave>4</octave></pitch><duration>120</duration><voice>1</voice><type>16th</type><beam number="1">continue</beam><beam number="2">continue</beam></note><note><pitch><step>A</step><octave>4</octave></pitch><duration>120</duration><voice>1</voice><type>16th</type><beam number="1">end</beam><beam number="2">end</beam></note><note><pitch><step>G</step><octave>4</octave></pitch><duration>240</duration><voice>1</voice><type>eighth</type><beam number="1">begin</beam></note><note><pitch><step>A</step><octave>4</octave></pitch><duration>240</duration><voice>1</voice><type>eighth</type><beam number="1">end</beam></note><note><pitch><step>G</step><octave>4</octave></pitch><duration>240</duration><voice>1</voice><type>eighth</type><beam number="1">begin</beam></note><note><pitch><step>A</step><octave>4</octave></pitch><duration>240</duration><voice>1</voice><type>eighth</type><beam number="1">end</beam></note></measure><measure number="14"><note><pitch><step>G</step><octave>4</octave></pitch><duration>240</duration><voice>1</voice><type>eighth</type><beam number="1">begin</beam></note><note><pitch><step>A</step><octave>4</octave></pitch><duration>240</duration><voice>1</voice><type>eighth</type><beam number="1">end</beam></note><note><pitch><step>G</step><octave>4</octave></pitch><duration>240</duration><voice>1</voice><type>eighth</type><beam number="1">begin</beam></note><note><pitch><step>A</step><octave>4</octave></pitch><duration>240</duration><voice>1</voice><type>eighth</type><beam number="1">end</beam></note><note><pitch><step>G</step><octave>4</octave></pitch><duration>240</duration><voice>1</voice><type>eighth</type><beam number="1">begin</beam></note><note><pitch><step>E</step><octave>4</octave></pitch><duration>240</duration><voice>1</voice><type>eighth</type><beam number="1">end</beam></note><note><pitch><step>G</step><octave>4</octave></pitch><duration>240</duration><voice>1</voice><type>eighth</type><beam number="1">begin</beam></note><note><pitch><step>F</step><octave>4</octave></pitch><duration>240</duration><voice>1</voice><type>eighth</type><beam number="1">end</beam></note></measure><measure number="15"><note><pitch><step>E</step><octave>4</octave></pitch><duration>240</duration><voice>1</voice><type>eighth</type><beam number="1">begin</beam></note><note><pitch><step>D</step><octave>4</octave></pitch><duration>240</duration><voice>1</voice><type>eighth</type><beam number="1">end</beam></note><note><pitch><step>C</step><octave>4</octave></pitch><duration>480</duration><voice>1</voice><type>quarter</type></note><note><pitch><step>G</step><octave>3</octave></pitch><duration>240</duration><voice>1</voice><type>eighth</type><beam number="1">begin</beam><notations><articulations><accent/></articulations></notations></note><note><pitch><step>C</step><octave>4</octave></pitch><duration>240</duration><voice>1</voice><type>eighth</type><beam number="1">end</beam><notations><articulations><accent/></articulations></notations></note><note><rest/><duration>240</duration><voice>1</voice><type>eighth</type></note><note><pitch><step>G</step><octave>3</octave></pitch><duration>240</duration><voice>1</voice><type>eighth</type></note></measure><measure number="16"><note><pitch><step>C</step><octave>4</octave></pitch><duration>240</duration><voice>1</voice><type>eighth</type><beam number="1">begin</beam></note><note><pitch><step>G</step><octave>3</octave></pitch><duration>240</duration><voice>1</voice><type>eighth</type><beam number="1">end</beam></note><note><pitch><step>C</step><octave>4</octave></pitch><duration>120</duration><voice>1</voice><type>16th</type><beam number="1">begin</beam><beam number="2">begin</beam></note><note><pitch><step>G</step><octave>3</octave></pitch><duration>120</duration><voice>1</voice><type>16th</type><beam number="1">continue</beam><beam number="2">continue</beam></note><note><pitch><step>C</step><octave>4</octave></pitch><duration>120</duration><voice>1</voice><type>16th</type><beam number="1">continue</beam><beam number="2">continue</beam></note><note><pitch><step>D</step><octave>4</octave></pitch><duration>120</duration><voice>1</voice><type>16th</type><beam number="1">end</beam><beam number="2">end</beam></note><note><pitch><step>E</step><octave>4</octave></pitch><duration>240</duration><voice>1</voice><type>eighth</type><beam number="1">begin</beam><notations><articulations><accent/></articulations></notations></note><note><pitch><step>E</step><octave>4</octave></pitch><duration>240</duration><voice>1</voice><type>eighth</type><beam number="1">end</beam><notations><articulations><accent/></articulations></notations></note><note><rest/><duration>240</duration><voice>1</voice><type>eighth</type></note><note><pitch><step>A</step><octave>3</octave></pitch><duration>240</duration><voice>1</voice><type>eighth</type></note></measure><measure number="17"><print new-system="yes"><system-layout><system-distance>85</system-distance></system-layout></print><note><pitch><step>D</step><octave>4</octave></pitch><duration>240</duration><voice>1</voice><type>eighth</type><beam number="1">begin</beam></note><note><pitch><step>A</step><octave>3</octave></pitch><duration>240</duration><voice>1</voice><type>eighth</type><beam number="1">end</beam></note><note><pitch><step>D</step><octave>4</octave></pitch><duration>120</duration><voice>1</voice><type>16th</type><beam number="1">begin</beam><beam number="2">begin</beam></note><note><pitch><step>A</step><octave>3</octave></pitch><duration>120</duration><voice>1</voice><type>16th</type><beam number="1">continue</beam><beam number="2">continue</beam></note><note><pitch><step>D</step><octave>4</octave></pitch><duration>120</duration><voice>1</voice><type>16th</type><beam number="1">continue</beam><beam number="2">continue</beam></note><note><pitch><step>E</step><octave>4</octave></pitch><duration>120</duration><voice>1</voice><type>16th</type><beam number="1">end</beam><beam number="2">end</beam></note><note><pitch><step>F</step><octave>4</octave></pitch><duration>240</duration><voice>1</voice><type>eighth</type><beam number="1">begin</beam><notations><articulations><accent/></articulations></notations></note><note><pitch><step>F</step><octave>4</octave></pitch><duration>240</duration><voice>1</voice><type>eighth</type><beam number="1">end</beam><notations><articulations><accent/></articulations></notations></note><note><rest/><duration>240</duration><voice>1</voice><type>eighth</type></note><note><pitch><step>B</step><octave>3</octave></pitch><duration>240</duration><voice>1</voice><type>eighth</type></note></measure><measure number="18"><note><pitch><step>E</step><octave>4</octave></pitch><duration>240</duration><voice>1</voice><type>eighth</type><beam number="1">begin</beam></note><note><pitch><step>B</step><octave>3</octave></pitch><duration>240</duration><voice>1</voice><type>eighth</type><beam number="1">end</beam></note><note><pitch><step>E</step><octave>4</octave></pitch><duration>120</duration><voice>1</voice><type>16th</type><beam number="1">begin</beam><beam number="2">begin</beam></note><note><pitch><step>B</step><octave>3</octave></pitch><duration>120</duration><voice>1</voice><type>16th</type><beam number="1">continue</beam><beam number="2">continue</beam></note><note><pitch><step>E</step><octave>4</octave></pitch><duration>120</duration><voice>1</voice><type>16th</type><beam number="1">continue</beam><beam number="2">continue</beam></note><note><pitch><step>F</step><octave>4</octave></pitch><duration>120</duration><voice>1</voice><type>16th</type><beam number="1">end</beam><beam number="2">end</beam></note><note><pitch><step>G</step><octave>4</octave></pitch><duration>240</duration><voice>1</voice><type>eighth</type><beam number="1">begin</beam><notations><articulations><accent/></articulations></notations></note><note><pitch><step>G</step><octave>4</octave></pitch><duration>240</duration><voice>1</voice><type>eighth</type><beam number="1">end</beam><notations><articulations><accent/></articulations></notations></note><note><rest/><duration>240</duration><voice>1</voice><type>eighth</type></note><note><pitch><step>C</step><octave>4</octave></pitch><duration>240</duration><voice>1</voice><type>eighth</type></note></measure><measure number="19"><note><pitch><step>F</step><octave>4</octave></pitch><duration>240</duration><voice>1</voice><type>eighth</type><beam number="1">begin</beam></note><note><pitch><step>C</step><octave>4</octave></pitch><duration>240</duration><voice>1</voice><type>eighth</type><beam number="1">end</beam></note><note><pitch><step>F</step><octave>4</octave></pitch><duration>120</duration><voice>1</voice><type>16th</type><beam number="1">begin</beam><beam number="2">begin</beam></note><note><pitch><step>C</step><octave>4</octave></pitch><duration>120</duration><voice>1</voice><type>16th</type><beam number="1">continue</beam><beam number="2">continue</beam></note><note><pitch><step>F</step><octave>4</octave></pitch><duration>120</duration><voice>1</voice><type>16th</type><beam number="1">continue</beam><beam number="2">continue</beam></note><note><pitch><step>G</step><octave>4</octave></pitch><duration>120</duration><voice>1</voice><type>16th</type><beam number="1">end</beam><beam number="2">end</beam></note><note><pitch><step>A</step><octave>4</octave></pitch><duration>240</duration><voice>1</voice><type>eighth</type><beam number="1">begin</beam><notations><articulations><accent/></articulations></notations></note><note><pitch><step>A</step><octave>4</octave></pitch><duration>240</duration><voice>1</voice><type>eighth</type><beam number="1">end</beam><notations><articulations><accent/></articulations></notations></note><note><pitch><step>G</step><octave>4</octave></pitch><duration>120</duration><voice>1</voice><type>16th</type><beam number="1">begin</beam><beam number="2">begin</beam></note><note><pitch><step>A</step><octave>4</octave></pitch><duration>120</duration><voice>1</voice><type>16th</type><beam number="1">continue</beam><beam number="2">continue</beam></note><note><pitch><step>G</step><octave>4</octave></pitch><duration>120</duration><voice>1</voice><type>16th</type><beam number="1">continue</beam><beam number="2">continue</beam></note><note><pitch><step>F</step><octave>4</octave></pitch><duration>120</duration><voice>1</voice><type>16th</type><beam number="1">end</beam><beam number="2">end</beam></note></measure><measure number="20"><note><pitch><step>E</step><octave>4</octave></pitch><duration>480</duration><voice>1</voice><type>quarter</type></note><note><pitch><step>E</step><octave>5</octave></pitch><duration>480</duration><voice>1</voice><type>half</type><dot/><notations><tied type="start"/></notations></note></measure><measure number="21"><print new-system="yes"><system-layout><system-distance>85</system-distance></system-layout></print><note><pitch><step>E</step><octave>5</octave></pitch><duration>480</duration><voice>1</voice><type>quarter</type><notations><tied type="stop"/></notations></note><note><pitch><step>D</step><octave>5</octave></pitch><duration>240</duration><voice>1</voice><type>eighth</type><dot/><beam number="1">begin</beam></note><note><pitch><step>E</step><octave>5</octave></pitch><duration>120</duration><voice>1</voice><type>16th</type><beam number="1">end</beam><beam number="2">backward hook</beam></note><note><pitch><step>D</step><octave>5</octave></pitch><duration>240</duration><voice>1</voice><type>eighth</type><beam number="1">begin</beam></note><note><pitch><step>C</step><octave>5</octave></pitch><duration>240</duration><voice>1</voice><type>eighth</type><beam number="1">end</beam></note><note><pitch><step>C</step><octave>5</octave></pitch><duration>240</duration><voice>1</voice><type>eighth</type><beam number="1">begin</beam></note><note><pitch><step>D</step><octave>5</octave></pitch><duration>240</duration><voice>1</voice><type>eighth</type><beam number="1">end</beam></note></measure><measure number="22"><note><pitch><step>E</step><octave>5</octave></pitch><duration>480</duration><voice>1</voice><type>quarter</type></note><note><pitch><step>F</step><octave>4</octave></pitch><duration>240</duration><voice>1</voice><type>eighth</type><beam number="1">begin</beam></note><note><pitch><step>F</step><octave>4</octave></pitch><duration>240</duration><voice>1</voice><type>eighth</type><beam number="1">end</beam></note><note><pitch><step>E</step><octave>4</octave></pitch><duration>240</duration><voice>1</voice><type>eighth</type><beam number="1">begin</beam></note><note><pitch><step>G</step><octave>4</octave></pitch><duration>240</duration><voice>1</voice><type>eighth</type><beam number="1">end</beam></note><note><pitch><step>C</step><octave>4</octave></pitch><duration>240</duration><voice>1</voice><type>eighth</type><beam number="1">begin</beam></note><note><pitch><step>D</step><octave>4</octave></pitch><duration>240</duration><voice>1</voice><type>eighth</type><beam number="1">end</beam></note></measure><measure number="23"><note><pitch><step>E</step><octave>4</octave></pitch><duration>480</duration><voice>1</voice><type>quarter</type></note><note><pitch><step>E</step><octave>4</octave></pitch><duration>240</duration><voice>1</voice><type>eighth</type><dot/><beam number="1">begin</beam></note><note><pitch><step>F</step><octave>4</octave></pitch><duration>120</duration><voice>1</voice><type>16th</type><beam number="1">end</beam><beam number="2">backward hook</beam></note><note><pitch><step>G</step><octave>4</octave></pitch><duration>240</duration><voice>1</voice><type>eighth</type><beam number="1">begin</beam></note><note><pitch><step>E</step><octave>4</octave></pitch><duration>240</duration><voice>1</voice><type>eighth</type><beam number="1">end</beam></note><note><rest/><duration>240</duration><voice>1</voice><type>eighth</type></note><note><pitch><step>F</step><octave>4</octave></pitch><duration>240</duration><voice>1</voice><type>eighth</type></note></measure><measure number="24"><note><pitch><step>G</step><octave>4</octave></pitch><duration>480</duration><voice>1</voice><type>quarter</type></note><note><pitch><step>E</step><octave>4</octave></pitch><duration>480</duration><voice>1</voice><type>half</type></note><note><pitch><step>D</step><octave>4</octave></pitch><duration>240</duration><voice>1</voice><type>eighth</type><beam number="1">begin</beam></note><note><pitch><step>E</step><octave>4</octave></pitch><duration>240</duration><voice>1</voice><type>eighth</type><beam number="1">end</beam></note></measure><measure number="25"><print new-system="yes"><system-layout><system-distance>85</system-distance></system-layout></print><note><pitch><step>G</step><octave>4</octave></pitch><duration>240</duration><voice>1</voice><type>eighth</type></note><note><pitch><step>C</step><octave>5</octave></pitch><duration>480</duration><voice>1</voice><type>quarter</type></note><note><pitch><step>A</step><octave>4</octave></pitch><duration>240</duration><voice>1</voice><type>eighth</type></note><note><pitch><step>B</step><octave>4</octave></pitch><duration>480</duration><voice>1</voice><type>quarter</type></note><note><pitch><step>D</step><octave>5</octave></pitch><duration>480</duration><voice>1</voice><type>quarter</type></note></measure><measure number="26"><note><pitch><step>D</step><octave>5</octave></pitch><duration>240</duration><voice>1</voice><type>eighth</type><dot/><beam number="1">begin</beam></note><note><pitch><step>E</step><octave>5</octave></pitch><duration>120</duration><voice>1</voice><type>16th</type><beam number="1">end</beam><beam number="2">backward hook</beam></note><note><pitch><step>F</step><octave>5</octave></pitch><duration>240</duration><voice>1</voice><type>eighth</type><beam number="1">begin</beam></note><note><pitch><step>F</step><octave>5</octave></pitch><duration>240</duration><voice>1</voice><type>eighth</type><beam number="1">end</beam></note><note><pitch><step>E</step><octave>5</octave></pitch><duration>240</duration><voice>1</voice><type>eighth</type><beam number="1">begin</beam></note><note><pitch><step>D</step><octave>5</octave></pitch><duration>240</duration><voice>1</voice><type>eighth</type><beam number="1">end</beam></note><note><pitch><step>C</step><octave>5</octave></pitch><duration>240</duration><voice>1</voice><type>eighth</type><dot/><beam number="1">begin</beam></note><note><pitch><step>D</step><octave>5</octave></pitch><duration>120</duration><voice>1</voice><type>16th</type><beam number="1">end</beam><beam number="2">backward hook</beam></note></measure><measure number="27"><note><pitch><step>E</step><octave>5</octave></pitch><duration>240</duration><voice>1</voice><type>eighth</type><beam number="1">begin</beam></note><note><pitch><step>C</step><octave>5</octave></pitch><duration>240</duration><voice>1</voice><type>eighth</type><beam number="1">end</beam></note><note><rest/><duration>240</duration><voice>1</voice><type>eighth</type></note><note><pitch><step>E</step><octave>5</octave></pitch><duration>240</duration><voice>1</voice><type>eighth</type></note><note><pitch><step>C</step><octave>5</octave></pitch><duration>240</duration><voice>1</voice><type>eighth</type><dot/><beam number="1">begin</beam></note><note><pitch><step>D</step><octave>5</octave></pitch><duration>120</duration><voice>1</voice><type>16th</type><beam number="1">end</beam><beam number="2">backward hook</beam></note><note><pitch><step>E</step><octave>5</octave></pitch><duration>240</duration><voice>1</voice><type>eighth</type><beam number="1">begin</beam></note><note><pitch><step>C</step><octave>5</octave></pitch><duration>240</duration><voice>1</voice><type>eighth</type><beam number="1">end</beam></note></measure><measure number="28"><note><rest/><duration>240</duration><voice>1</voice><type>eighth</type></note><note><pitch><step>E</step><octave>5</octave></pitch><duration>240</duration><voice>1</voice><type>eighth</type></note><note><pitch><step>C</step><octave>5</octave></pitch><duration>240</duration><voice>1</voice><type>eighth</type><beam number="1">begin</beam></note><note><pitch><step>E</step><octave>5</octave></pitch><duration>240</duration><voice>1</voice><type>eighth</type><beam number="1">end</beam></note><note><pitch><step>C</step><octave>5</octave></pitch><duration>480</duration><voice>1</voice><type>half</type><notations><tied type="start"/></notations></note></measure><measure number="29"><print new-system="yes"><system-layout><system-distance>85</system-distance></system-layout></print><note><pitch><step>C</step><octave>5</octave></pitch><duration>240</duration><voice>1</voice><type>eighth</type><beam number="1">begin</beam><notations><tied type="stop"/></notations></note><note><pitch><step>G</step><octave>4</octave></pitch><duration>240</duration><voice>1</voice><type>eighth</type><beam number="1">end</beam></note><note><pitch><step>E</step><octave>4</octave></pitch><duration>240</duration><voice>1</voice><type>eighth</type><beam number="1">begin</beam></note><note><pitch><step>D</step><octave>4</octave></pitch><duration>240</duration><voice>1</voice><type>eighth</type><beam number="1">end</beam></note><note><pitch><step>C</step><octave>4</octave></pitch><duration>480</duration><voice>1</voice><type>quarter</type></note><note><pitch><step>C</step><octave>4</octave></pitch><duration>480</duration><voice>1</voice><type>quarter</type></note><barline><bar-style>light-heavy</bar-style></barline></measure><measure number="30"><note><pitch><step>G</step><octave>4</octave></pitch><duration>480</duration><voice>1</voice><type>quarter</type></note><note><pitch><step>G</step><octave>4</octave></pitch><duration>480</duration><voice>1</voice><type>quarter</type></note><note><pitch><step>E</step><octave>4</octave></pitch><duration>240</duration><voice>1</voice><type>eighth</type></note><note><pitch><step>G</step><octave>4</octave></pitch><duration>480</duration><voice>1</voice><type>quarter</type></note><note><pitch><step>A</step><octave>4</octave></pitch><duration>240</duration><voice>1</voice><type>eighth</type></note></measure><measure number="31"><note><pitch><step>G</step><octave>4</octave></pitch><duration>480</duration><voice>1</voice><type>quarter</type></note><note><rest/><duration>240</duration><voice>1</voice><type>eighth</type></note><note><pitch><step>F</step><octave>4</octave></pitch><duration>240</duration><voice>1</voice><type>eighth</type></note><note><pitch><step>E</step><octave>4</octave></pitch><duration>240</duration><voice>1</voice><type>eighth</type><beam number="1">begin</beam></note><note><pitch><step>F</step><octave>4</octave></pitch><duration>240</duration><voice>1</voice><type>eighth</type><beam number="1">end</beam></note><note><pitch><step>G</step><octave>4</octave></pitch><duration>240</duration><voice>1</voice><type>eighth</type><beam number="1">begin</beam></note><note><pitch><step>C</step><octave>4</octave></pitch><duration>240</duration><voice>1</voice><type>eighth</type><beam number="1">end</beam></note></measure><measure number="32"><note><pitch><step>E</step><octave>4</octave></pitch><duration>240</duration><voice>1</voice><type>eighth</type><beam number="1">begin</beam></note><note><pitch><step>F</step><octave>4</octave></pitch><duration>240</duration><voice>1</voice><type>eighth</type><beam number="1">end</beam></note><note><pitch><step>G</step><octave>4</octave></pitch><duration>480</duration><voice>1</voice><type>quarter</type></note><note><pitch><step>E</step><octave>4</octave></pitch><duration>240</duration><voice>1</voice><type>eighth</type><beam number="1">begin</beam></note><note><pitch><step>G</step><octave>4</octave></pitch><duration>240</duration><voice>1</voice><type>eighth</type><beam number="1">end</beam></note><note><pitch><step>A</step><octave>4</octave></pitch><duration>120</duration><voice>1</voice><type>16th</type><beam number="1">begin</beam><beam number="2">forward hook</beam></note><note><pitch><step>G</step><octave>4</octave></pitch><duration>240</duration><voice>1</voice><type>eighth</type><dot/><beam number="1">end</beam></note></measure><measure number="33"><print new-system="yes"><system-layout><system-distance>85</system-distance></system-layout></print><note><rest/><duration>240</duration><voice>1</voice><type>eighth</type></note><note><pitch><step>F</step><octave>4</octave></pitch><duration>480</duration><voice>1</voice><type>quarter</type></note><note><pitch><step>G</step><octave>4</octave></pitch><duration>240</duration><voice>1</voice><type>eighth</type></note><note><pitch><step>E</step><octave>4</octave></pitch><duration>240</duration><voice>1</voice><type>eighth</type><beam number="1">begin</beam></note><note><pitch><step>D</step><octave>4</octave></pitch><duration>240</duration><voice>1</voice><type>eighth</type><beam number="1">end</beam></note><note><pitch><step>C</step><octave>4</octave></pitch><duration>480</duration><voice>1</voice><type>quarter</type></note></measure><measure number="34"><note><rest/><duration>240</duration><voice>1</voice><type>eighth</type></note><note><pitch><step>G</step><octave>3</octave></pitch><duration>240</duration><voice>1</voice><type>eighth</type></note><note><pitch><step>C</step><octave>4</octave></pitch><duration>240</duration><voice>1</voice><type>eighth</type><beam number="1">begin</beam></note><note><pitch><step>C</step><octave>4</octave></pitch><duration>240</duration><voice>1</voice><type>eighth</type><beam number="1">end</beam></note><note><rest/><duration>240</duration><voice>1</voice><type>eighth</type></note><note><pitch><step>B</step><octave>3</octave></pitch><duration>240</duration><voice>1</voice><type>eighth</type></note><note><rest/><duration>240</duration><voice>1</voice><type>eighth</type></note><note><pitch><step>E</step><octave>4</octave></pitch><duration>240</duration><voice>1</voice><type>eighth</type></note></measure><measure number="35"><note><pitch><step>C</step><octave>4</octave></pitch><duration>480</duration><voice>1</voice><type>quarter</type></note><note><pitch><step>B</step><octave>3</octave></pitch><duration>480</duration><voice>1</voice><type>quarter</type></note><note><rest/><duration>240</duration><voice>1</voice><type>eighth</type></note><note><pitch><step>B</step><octave>3</octave></pitch><duration>240</duration><voice>1</voice><type>eighth</type></note><note><rest/><duration>240</duration><voice>1</voice><type>eighth</type></note><note><pitch><step>B</step><octave>3</octave></pitch><duration>240</duration><voice>1</voice><type>eighth</type></note></measure><measure number="36"><note><pitch><step>A</step><octave>3</octave></pitch><duration>480</duration><voice>1</voice><type>quarter</type></note><note><pitch><step>A</step><octave>3</octave></pitch><duration>480</duration><voice>1</voice><type>quarter</type></note><note><rest/><duration>240</duration><voice>1</voice><type>eighth</type></note><note><pitch><step>A</step><octave>3</octave></pitch><duration>240</duration><voice>1</voice><type>eighth</type></note><note><rest/><duration>240</duration><voice>1</voice><type>eighth</type></note><note><pitch><step>A</step><octave>3</octave></pitch><duration>240</duration><voice>1</voice><type>eighth</type></note></measure><measure number="37"><print new-system="yes"><system-layout><system-distance>85</system-distance></system-layout></print><note><pitch><step>E</step><octave>4</octave></pitch><duration>480</duration><voice>1</voice><type>quarter</type></note><note><pitch><step>C</step><octave>4</octave></pitch><duration>480</duration><voice>1</voice><type>quarter</type></note><note><pitch><step>B</step><octave>3</octave></pitch><duration>240</duration><voice>1</voice><type>eighth</type><beam number="1">begin</beam></note><note><pitch><step>A</step><octave>3</octave></pitch><duration>240</duration><voice>1</voice><type>eighth</type><beam number="1">end</beam></note><note><rest/><duration>240</duration><voice>1</voice><type>eighth</type></note><note><pitch><step>C</step><octave>4</octave></pitch><duration>240</duration><voice>1</voice><type>eighth</type></note></measure><measure number="38"><note><pitch><step>B</step><octave>3</octave></pitch><duration>480</duration><voice>1</voice><type>quarter</type></note><note><pitch><step>A</step><octave>3</octave></pitch><duration>480</duration><voice>1</voice><type>quarter</type></note><note><rest/><duration>240</duration><voice>1</voice><type>eighth</type></note><note><pitch><step>A</step><octave>3</octave></pitch><duration>240</duration><voice>1</voice><type>eighth</type></note><note><rest/><duration>240</duration><voice>1</voice><type>eighth</type></note><note><pitch><step>A</step><octave>3</octave></pitch><duration>240</duration><voice>1</voice><type>eighth</type></note></measure><measure number="39"><note><pitch><step>E</step><octave>4</octave></pitch><duration>480</duration><voice>1</voice><type>quarter</type></note><note><pitch><step>A</step><octave>3</octave></pitch><duration>480</duration><voice>1</voice><type>quarter</type></note><note><pitch><step>C</step><octave>4</octave></pitch><duration>240</duration><voice>1</voice><type>eighth</type><beam number="1">begin</beam></note><note><pitch><step>A</step><octave>3</octave></pitch><duration>240</duration><voice>1</voice><type>eighth</type><beam number="1">end</beam></note><note><rest/><duration>240</duration><voice>1</voice><type>eighth</type></note><note><pitch><step>C</step><octave>4</octave></pitch><duration>240</duration><voice>1</voice><type>eighth</type></note></measure><measure number="40"><note><pitch><step>A</step><octave>3</octave></pitch><duration>480</duration><voice>1</voice><type>quarter</type></note><note><pitch><step>E</step><octave>4</octave></pitch><duration>480</duration><voice>1</voice><type>quarter</type></note><note><rest/><duration>240</duration><voice>1</voice><type>eighth</type></note><note><pitch><step>E</step><octave>4</octave></pitch><duration>240</duration><voice>1</voice><type>eighth</type></note><note><rest/><duration>240</duration><voice>1</voice><type>eighth</type></note><note><pitch><step>E</step><octave>4</octave></pitch><duration>240</duration><voice>1</voice><type>eighth</type></note></measure><measure number="41"><print new-system="yes"><system-layout><system-distance>85</system-distance></system-layout></print><note><pitch><step>A</step><octave>4</octave></pitch><duration>480</duration><voice>1</voice><type>quarter</type></note><note><pitch><step>A</step><octave>4</octave></pitch><duration>480</duration><voice>1</voice><type>quarter</type></note><note><pitch><step>D</step><octave>4</octave></pitch><duration>240</duration><voice>1</voice><type>eighth</type><beam number="1">begin</beam></note><note><pitch><step>A</step><octave>4</octave></pitch><duration>240</duration><voice>1</voice><type>eighth</type><beam number="1">end</beam></note><note><pitch><step>D</step><octave>4</octave></pitch><duration>240</duration><voice>1</voice><type>eighth</type><beam number="1">begin</beam></note><note><pitch><step>A</step><octave>4</octave></pitch><duration>240</duration><voice>1</voice><type>eighth</type><beam number="1">end</beam></note></measure><measure number="42"><note><pitch><step>E</step><octave>4</octave></pitch><duration>480</duration><voice>1</voice><type>quarter</type></note><note><pitch><step>E</step><octave>4</octave></pitch><duration>480</duration><voice>1</voice><type>quarter</type></note><note><pitch><step>A</step><octave>3</octave></pitch><duration>240</duration><voice>1</voice><type>eighth</type><beam number="1">begin</beam></note><note><pitch><step>E</step><octave>4</octave></pitch><duration>240</duration><voice>1</voice><type>eighth</type><beam number="1">end</beam></note><note><pitch><step>A</step><octave>3</octave></pitch><duration>240</duration><voice>1</voice><type>eighth</type><beam number="1">begin</beam></note><note><pitch><step>E</step><octave>4</octave></pitch><duration>240</duration><voice>1</voice><type>eighth</type><beam number="1">end</beam></note></measure><measure number="43"><note><pitch><step>A</step><octave>3</octave></pitch><duration>240</duration><voice>1</voice><type>eighth</type><beam number="1">begin</beam></note><note><pitch><step>E</step><octave>4</octave></pitch><duration>240</duration><voice>1</voice><type>eighth</type><beam number="1">end</beam></note><note><pitch><step>C</step><octave>4</octave></pitch><duration>240</duration><voice>1</voice><type>eighth</type><beam number="1">begin</beam></note><note><pitch><step>A</step><octave>3</octave></pitch><duration>240</duration><voice>1</voice><type>eighth</type><beam number="1">end</beam><notations><tied type="start"/></notations></note><note><pitch><step>A</step><octave>3</octave></pitch><duration>240</duration><voice>1</voice><type>eighth</type><beam number="1">begin</beam><notations><tied type="stop"/></notations></note><note><pitch><step>E</step><octave>4</octave></pitch><duration>240</duration><voice>1</voice><type>eighth</type><beam number="1">end</beam></note><note><rest/><duration>240</duration><voice>1</voice><type>eighth</type></note><note><pitch><step>C</step><octave>4</octave></pitch><duration>240</duration><voice>1</voice><type>eighth</type></note></measure><measure number="44"><note><pitch><step>A</step><octave>3</octave></pitch><duration>480</duration><voice>1</voice><type>quarter</type></note><note><pitch><step>E</step><octave>4</octave></pitch><duration>480</duration><voice>1</voice><type>quarter</type></note><note><rest/><duration>240</duration><voice>1</voice><type>eighth</type></note><note><pitch><step>E</step><octave>4</octave></pitch><duration>240</duration><voice>1</voice><type>eighth</type></note><note><rest/><duration>240</duration><voice>1</voice><type>eighth</type></note><note><pitch><step>E</step><octave>4</octave></pitch><duration>240</duration><voice>1</voice><type>eighth</type></note></measure><measure number="45"><print new-system="yes"><system-layout><system-distance>85</system-distance></system-layout></print><note><pitch><step>A</step><octave>4</octave></pitch><duration>480</duration><voice>1</voice><type>quarter</type></note><note><pitch><step>A</step><octave>4</octave></pitch><duration>480</duration><voice>1</voice><type>quarter</type></note><note><pitch><step>C</step><octave>5</octave></pitch><duration>480</duration><voice>1</voice><type>half</type></note></measure><measure number="46"><note><pitch><step>B</step><octave>4</octave></pitch><duration>480</duration><voice>1</voice><type>half</type></note><note><pitch><step>A</step><octave>4</octave></pitch><duration>480</duration><voice>1</voice><type>half</type></note></measure><measure number="47"><note><pitch><step>C</step><octave>5</octave></pitch><duration>480</duration><voice>1</voice><type>half</type></note><note><pitch><step>E</step><octave>4</octave></pitch><duration>480</duration><voice>1</voice><type>quarter</type></note><note><pitch><step>B</step><octave>4</octave></pitch><duration>480</duration><voice>1</voice><type>quarter</type><notations><articulations><accent/></articulations></notations></note></measure><measure number="48"><note><rest/><duration>240</duration><voice>1</voice><type>eighth</type></note><note><pitch><step>B</step><octave>4</octave></pitch><duration>240</duration><voice>1</voice><type>eighth</type></note><note><pitch><step>A</step><octave>4</octave></pitch><duration>240</duration><voice>1</voice><type>eighth</type><beam number="1">begin</beam></note><note><pitch><step>G</step><octave>4</octave></pitch><duration>240</duration><voice>1</voice><type>eighth</type><beam number="1">end</beam></note><note><pitch><step>E</step><octave>4</octave></pitch><duration>480</duration><voice>1</voice><type>quarter</type></note><note><pitch><step>E</step><octave>4</octave></pitch><duration>480</duration><voice>1</voice><type>quarter</type><notations><articulations><accent/></articulations></notations></note></measure><measure number="49"><print new-system="yes"><system-layout><system-distance>85</system-distance></system-layout></print><note><rest/><duration>240</duration><voice>1</voice><type>eighth</type></note><note><pitch><step>A</step><octave>4</octave></pitch><duration>240</duration><voice>1</voice><type>eighth</type></note><note><pitch><step>B</step><octave>4</octave></pitch><duration>240</duration><voice>1</voice><type>eighth</type><beam number="1">begin</beam></note><note><pitch><step>A</step><octave>4</octave></pitch><duration>240</duration><voice>1</voice><type>eighth</type><beam number="1">end</beam></note><note><pitch><step>E</step><octave>4</octave></pitch><duration>480</duration><voice>1</voice><type>quarter</type></note><note><pitch><step>E</step><octave>4</octave></pitch><duration>480</duration><voice>1</voice><type>quarter</type><notations><articulations><accent/></articulations></notations></note></measure><measure number="50"><note><rest/><duration>240</duration><voice>1</voice><type>eighth</type></note><note><pitch><step>F</step><octave>4</octave></pitch><duration>240</duration><voice>1</voice><type>eighth</type><notations><tied type="start"/></notations></note><note><pitch><step>F</step><octave>4</octave></pitch><duration>240</duration><voice>1</voice><type>eighth</type><beam number="1">begin</beam><notations><tied type="stop"/></notations></note><note><pitch><step>G</step><octave>4</octave></pitch><duration>240</duration><voice>1</voice><type>eighth</type><beam number="1">end</beam></note><note><pitch><step>E</step><octave>4</octave></pitch><duration>480</duration><voice>1</voice><type>quarter</type></note><note><pitch><step>E</step><octave>4</octave></pitch><duration>480</duration><voice>1</voice><type>quarter</type></note></measure><measure number="51"><note><pitch><step>D</step><octave>4</octave></pitch><duration>240</duration><voice>1</voice><type>eighth</type><beam number="1">begin</beam></note><note><pitch><step>E</step><octave>4</octave></pitch><duration>240</duration><voice>1</voice><type>eighth</type><beam number="1">end</beam></note><note><pitch><step>F</step><octave>4</octave></pitch><duration>240</duration><voice>1</voice><type>eighth</type><beam number="1">begin</beam></note><note><pitch><step>D</step><octave>4</octave></pitch><duration>240</duration><voice>1</voice><type>eighth</type><beam number="1">end</beam></note><note><pitch><step>G</step><octave>4</octave></pitch><duration>480</duration><voice>1</voice><type>quarter</type></note><note><pitch><step>C</step><octave>4</octave></pitch><duration>120</duration><voice>1</voice><type>16th</type><beam number="1">begin</beam><beam number="2">begin</beam></note><note><pitch><step>D</step><octave>4</octave></pitch><duration>120</duration><voice>1</voice><type>16th</type><beam number="1">continue</beam><beam number="2">continue</beam></note><note><pitch><step>E</step><octave>4</octave></pitch><duration>120</duration><voice>1</voice><type>16th</type><beam number="1">continue</beam><beam number="2">continue</beam></note><note><pitch><step>F</step><octave>4</octave></pitch><duration>120</duration><voice>1</voice><type>16th</type><beam number="1">end</beam><beam number="2">end</beam></note><barline location="right"><bar-style>light-heavy</bar-style><repeat direction="backward"/></barline></measure></part></score-partwise>
