<?xml version="1.0" encoding='UTF-8' standalone='no' ?><!DOCTYPE score-partwise PUBLIC "-//Recordare//DTD MusicXML 3.0 Partwise//EN" "http://www.musicxml.org/dtds/partwise.dtd"><score-partwise version=" 3.0"><work><work-title>陌头柳色</work-title></work><identification><creator type="composer">谱谱风 词
谱谱风 曲</creator><encoding><software>PPFENG,谱谱风</software><encoding-date>2026-03-10</encoding-date></encoding></identification><defaults><scaling><millimeters>210</millimeters><tenths>1200</tenths></scaling><page-layout><page-height>1698</page-height><page-width>1200</page-width><page-margins type="both"><left-margin>72</left-margin><right-margin>72</right-margin><top-margin>72</top-margin><bottom-margin>72</bottom-margin></page-margins></page-layout><appearance><line-width type="ending">1.5625</line-width></appearance></defaults><part-list><score-part id="P1"><part-name/><part-abbreviation/><score-instrument id="P1-I1"><instrument-name/></score-instrument></score-part></part-list><part id="P1"><measure number="1"><print new-system="yes"><system-layout><system-distance>300</system-distance></system-layout></print><attributes><divisions>480</divisions><key><fifths>0</fifths></key><time><beats>4</beats><beat-type>4</beat-type></time><clef number="1"><sign>G</sign></clef></attributes><note><rest/><duration>240</duration><voice>1</voice><type>eighth</type></note><note><pitch><step>A</step><octave>4</octave></pitch><duration>120</duration><voice>1</voice><type>16th</type><beam number="1">begin</beam><beam number="2">begin</beam></note><note><pitch><step>G</step><octave>4</octave></pitch><duration>120</duration><voice>1</voice><type>16th</type><beam number="1">end</beam><beam number="2">end</beam></note><note><pitch><step>F</step><octave>4</octave></pitch><duration>240</duration><voice>1</voice><type>eighth</type><beam number="1">begin</beam></note><note><pitch><step>A</step><octave>4</octave></pitch><duration>240</duration><voice>1</voice><type>eighth</type><beam number="1">end</beam></note><note><pitch><step>G</step><octave>4</octave></pitch><duration>120</duration><voice>1</voice><type>16th</type><beam number="1">begin</beam><beam number="2">begin</beam></note><note><pitch><step>F</step><octave>4</octave></pitch><duration>120</duration><voice>1</voice><type>16th</type><beam number="1">continue</beam><beam number="2">continue</beam></note><note><pitch><step>G</step><octave>4</octave></pitch><duration>120</duration><voice>1</voice><type>16th</type><beam number="1">continue</beam><beam number="2">continue</beam></note><note><pitch><step>A</step><octave>4</octave></pitch><duration>120</duration><voice>1</voice><type>16th</type><beam number="1">end</beam><beam number="2">end</beam></note></measure><measure number="2"><barline location="left"><bar-style>heavy-light</bar-style><repeat direction="forward"/></barline><note><pitch><step>F</step><octave>4</octave></pitch><duration>240</duration><voice>1</voice><type>eighth</type><beam number="1">begin</beam></note><note><pitch><step>G</step><octave>4</octave></pitch><duration>60</duration><voice>1</voice><type>32nd</type><beam number="1">continue</beam><beam number="2">begin</beam><beam number="3">begin</beam><notations><slur type="start" number="1"/></notations></note><note><pitch><step>F</step><octave>4</octave></pitch><duration>60</duration><voice>1</voice><type>32nd</type><beam number="1">continue</beam><beam number="2">continue</beam><beam number="3">continue</beam></note><note><pitch><step>G</step><octave>4</octave></pitch><duration>60</duration><voice>1</voice><type>32nd</type><beam number="1">continue</beam><beam number="2">continue</beam><beam number="3">continue</beam></note><note><pitch><step>A</step><octave>4</octave></pitch><duration>60</duration><voice>1</voice><type>32nd</type><beam number="1">end</beam><beam number="2">end</beam><beam number="3">end</beam><notations><slur type="stop" number="1"/></notations></note><note><pitch><step>F</step><octave>4</octave></pitch><duration>120</duration><voice>1</voice><type>16th</type><beam number="1">begin</beam><beam number="2">begin</beam></note><note><pitch><step>G</step><octave>4</octave></pitch><duration>120</duration><voice>1</voice><type>16th</type><beam number="1">continue</beam><beam number="2">continue</beam></note><note><pitch><step>F</step><octave>4</octave></pitch><duration>120</duration><voice>1</voice><type>16th</type><beam number="1">continue</beam><beam number="2">continue</beam></note><note><pitch><step>E</step><octave>4</octave></pitch><duration>120</duration><voice>1</voice><type>16th</type><beam number="1">end</beam><beam number="2">end</beam></note><note><pitch><step>D</step><octave>4</octave></pitch><duration>240</duration><voice>1</voice><type>eighth</type><beam number="1">begin</beam></note><note><pitch><step>E</step><octave>4</octave></pitch><duration>60</duration><voice>1</voice><type>32nd</type><beam number="1">continue</beam><beam number="2">begin</beam><beam number="3">begin</beam></note><note><pitch><step>F</step><octave>4</octave></pitch><duration>60</duration><voice>1</voice><type>32nd</type><beam number="1">continue</beam><beam number="2">continue</beam><beam number="3">continue</beam></note><note><pitch><step>E</step><octave>4</octave></pitch><duration>60</duration><voice>1</voice><type>32nd</type><beam number="1">continue</beam><beam number="2">continue</beam><beam number="3">continue</beam></note><note><pitch><step>D</step><octave>4</octave></pitch><duration>60</duration><voice>1</voice><type>32nd</type><beam number="1">end</beam><beam number="2">end</beam><beam number="3">end</beam></note><note><pitch><step>B</step><octave>3</octave></pitch><duration>120</duration><voice>1</voice><type>16th</type><beam number="1">begin</beam><beam number="2">begin</beam></note><note><pitch><step>A</step><octave>3</octave></pitch><duration>120</duration><voice>1</voice><type>16th</type><beam number="1">continue</beam><beam number="2">continue</beam></note><note><pitch><step>B</step><octave>3</octave></pitch><duration>120</duration><voice>1</voice><type>16th</type><beam number="1">continue</beam><beam number="2">continue</beam></note><note><pitch><step>D</step><octave>4</octave></pitch><duration>120</duration><voice>1</voice><type>16th</type><beam number="1">end</beam><beam number="2">end</beam></note></measure><measure number="3"><print new-system="yes"><system-layout><system-distance>85</system-distance></system-layout></print><note><pitch><step>E</step><octave>4</octave></pitch><duration>240</duration><voice>1</voice><type>eighth</type></note><note><rest/><duration>120</duration><voice>1</voice><type>16th</type></note><note><pitch><step>F</step><octave>4</octave></pitch><duration>120</duration><voice>1</voice><type>16th</type></note><note><pitch><step>E</step><octave>4</octave></pitch><duration>120</duration><voice>1</voice><type>16th</type><beam number="1">begin</beam><beam number="2">begin</beam></note><note><pitch><step>D</step><octave>4</octave></pitch><duration>120</duration><voice>1</voice><type>16th</type><beam number="1">continue</beam><beam number="2">continue</beam></note><note><pitch><step>E</step><octave>4</octave></pitch><duration>120</duration><voice>1</voice><type>16th</type><beam number="1">continue</beam><beam number="2">continue</beam></note><note><pitch><step>G</step><octave>4</octave></pitch><duration>120</duration><voice>1</voice><type>16th</type><beam number="1">end</beam><beam number="2">end</beam></note><note><pitch><step>D</step><octave>4</octave></pitch><duration>120</duration><voice>1</voice><type>16th</type><beam number="1">begin</beam><beam number="2">begin</beam></note><note><pitch><step>E</step><octave>4</octave></pitch><duration>120</duration><voice>1</voice><type>16th</type><beam number="1">continue</beam><beam number="2">end</beam></note><note><pitch><step>G</step><octave>4</octave></pitch><duration>240</duration><voice>1</voice><type>eighth</type><beam number="1">end</beam></note><note><pitch><step>E</step><octave>4</octave></pitch><duration>120</duration><voice>1</voice><type>16th</type><beam number="1">begin</beam><beam number="2">begin</beam></note><note><pitch><step>F</step><octave>4</octave></pitch><duration>120</duration><voice>1</voice><type>16th</type><beam number="1">continue</beam><beam number="2">continue</beam></note><note><pitch><step>E</step><octave>4</octave></pitch><duration>60</duration><voice>1</voice><type>32nd</type><beam number="1">continue</beam><beam number="2">continue</beam><beam number="3">begin</beam></note><note><pitch><step>F</step><octave>4</octave></pitch><duration>60</duration><voice>1</voice><type>32nd</type><beam number="1">continue</beam><beam number="2">continue</beam><beam number="3">continue</beam></note><note><pitch><step>E</step><octave>4</octave></pitch><duration>60</duration><voice>1</voice><type>32nd</type><beam number="1">continue</beam><beam number="2">continue</beam><beam number="3">continue</beam></note><note><pitch><step>D</step><octave>4</octave></pitch><duration>60</duration><voice>1</voice><type>32nd</type><beam number="1">end</beam><beam number="2">end</beam><beam number="3">end</beam></note></measure><measure number="4"><note><pitch><step>B</step><octave>3</octave></pitch><duration>120</duration><voice>1</voice><type>16th</type><beam number="1">begin</beam><beam number="2">begin</beam></note><note><pitch><step>A</step><octave>3</octave></pitch><duration>120</duration><voice>1</voice><type>16th</type><beam number="1">continue</beam><beam number="2">continue</beam></note><note><pitch><step>B</step><octave>3</octave></pitch><duration>120</duration><voice>1</voice><type>16th</type><beam number="1">continue</beam><beam number="2">continue</beam></note><note><pitch><step>D</step><octave>4</octave></pitch><duration>120</duration><voice>1</voice><type>16th</type><beam number="1">end</beam><beam number="2">end</beam></note><note><pitch><step>A</step><octave>3</octave></pitch><duration>240</duration><voice>1</voice><type>eighth</type></note><note><rest/><duration>120</duration><voice>1</voice><type>16th</type></note><note><pitch><step>E</step><octave>4</octave></pitch><duration>120</duration><voice>1</voice><type>16th</type></note><note><pitch><step>D</step><octave>4</octave></pitch><duration>120</duration><voice>1</voice><type>16th</type><beam number="1">begin</beam><beam number="2">begin</beam></note><note><pitch><step>E</step><octave>4</octave></pitch><duration>120</duration><voice>1</voice><type>16th</type><beam number="1">continue</beam><beam number="2">continue</beam></note><note><pitch><step>D</step><octave>4</octave></pitch><duration>120</duration><voice>1</voice><type>16th</type><beam number="1">continue</beam><beam number="2">continue</beam></note><note><pitch><step>G</step><octave>3</octave></pitch><duration>120</duration><voice>1</voice><type>16th</type><beam number="1">end</beam><beam number="2">end</beam></note><note><pitch><step>A</step><octave>3</octave></pitch><duration>120</duration><voice>1</voice><type>16th</type><beam number="1">begin</beam><beam number="2">begin</beam></note><note><pitch><step>B</step><octave>3</octave></pitch><duration>120</duration><voice>1</voice><type>16th</type><beam number="1">continue</beam><beam number="2">continue</beam></note><note><pitch><step>A</step><octave>3</octave></pitch><duration>120</duration><voice>1</voice><type>16th</type><beam number="1">continue</beam><beam number="2">continue</beam></note><note><pitch><step>E</step><octave>4</octave></pitch><duration>60</duration><voice>1</voice><type>32nd</type><beam number="1">continue</beam><beam number="2">continue</beam><beam number="3">begin</beam></note><note><pitch><step>D</step><octave>4</octave></pitch><duration>60</duration><voice>1</voice><type>32nd</type><beam number="1">end</beam><beam number="2">end</beam><beam number="3">end</beam></note></measure><measure number="5"><print new-system="yes"><system-layout><system-distance>85</system-distance></system-layout></print><note><pitch><step>B</step><octave>3</octave></pitch><duration>120</duration><voice>1</voice><type>16th</type><beam number="1">begin</beam><beam number="2">begin</beam></note><note><pitch><step>D</step><octave>4</octave></pitch><duration>120</duration><voice>1</voice><type>16th</type><beam number="1">continue</beam><beam number="2">continue</beam></note><note><pitch><step>E</step><octave>4</octave></pitch><duration>120</duration><voice>1</voice><type>16th</type><beam number="1">continue</beam><beam number="2">continue</beam></note><note><pitch><step>G</step><octave>4</octave></pitch><duration>120</duration><voice>1</voice><type>16th</type><beam number="1">end</beam><beam number="2">end</beam></note><note><pitch><step>D</step><octave>4</octave></pitch><duration>240</duration><voice>1</voice><type>eighth</type><beam number="1">begin</beam></note><note><pitch><step>E</step><octave>4</octave></pitch><duration>60</duration><voice>1</voice><type>32nd</type><beam number="1">continue</beam><beam number="2">begin</beam><beam number="3">begin</beam><notations><slur type="start" number="1"/></notations></note><note><pitch><step>F</step><octave>4</octave></pitch><duration>60</duration><voice>1</voice><type>32nd</type><beam number="1">continue</beam><beam number="2">continue</beam><beam number="3">continue</beam></note><note><pitch><step>E</step><octave>4</octave></pitch><duration>60</duration><voice>1</voice><type>32nd</type><beam number="1">continue</beam><beam number="2">continue</beam><beam number="3">continue</beam></note><note><pitch><step>D</step><octave>4</octave></pitch><duration>60</duration><voice>1</voice><type>32nd</type><beam number="1">end</beam><beam number="2">end</beam><beam number="3">end</beam><notations><slur type="stop" number="1"/></notations></note><note><pitch><step>B</step><octave>3</octave></pitch><duration>120</duration><voice>1</voice><type>16th</type><beam number="1">begin</beam><beam number="2">forward hook</beam></note><note><pitch><step>D</step><octave>4</octave></pitch><duration>240</duration><voice>1</voice><type>eighth</type><beam number="1">continue</beam><notations><articulations><accent/></articulations></notations></note><note><pitch><step>G</step><octave>3</octave></pitch><duration>120</duration><voice>1</voice><type>16th</type><beam number="1">end</beam><beam number="2">backward hook</beam></note><note><pitch><step>A</step><octave>3</octave></pitch><duration>240</duration><voice>1</voice><type>eighth</type><beam number="1">begin</beam></note><note><pitch><step>B</step><octave>4</octave></pitch><duration>120</duration><voice>1</voice><type>16th</type><beam number="1">continue</beam><beam number="2">begin</beam></note><note><pitch><step>D</step><octave>5</octave></pitch><duration>120</duration><voice>1</voice><type>16th</type><beam number="1">end</beam><beam number="2">end</beam></note></measure><measure number="6"><note><pitch><step>B</step><octave>4</octave></pitch><duration>120</duration><voice>1</voice><type>16th</type><beam number="1">begin</beam><beam number="2">begin</beam></note><note><pitch><step>A</step><octave>4</octave></pitch><duration>120</duration><voice>1</voice><type>16th</type><beam number="1">continue</beam><beam number="2">continue</beam></note><note><pitch><step>G</step><octave>4</octave></pitch><duration>120</duration><voice>1</voice><type>16th</type><beam number="1">continue</beam><beam number="2">continue</beam></note><note><pitch><step>A</step><octave>4</octave></pitch><duration>120</duration><voice>1</voice><type>16th</type><beam number="1">end</beam><beam number="2">end</beam></note><note><pitch><step>E</step><octave>4</octave></pitch><duration>120</duration><voice>1</voice><type>16th</type><beam number="1">begin</beam><beam number="2">begin</beam></note><note><pitch><step>G</step><octave>4</octave></pitch><duration>120</duration><voice>1</voice><type>16th</type><beam number="1">continue</beam><beam number="2">continue</beam></note><note><pitch><step>A</step><octave>4</octave></pitch><duration>120</duration><voice>1</voice><type>16th</type><beam number="1">end</beam><beam number="2">end</beam></note><note><rest/><duration>60</duration><voice>1</voice><type>32nd</type></note><note><pitch><step>B</step><octave>4</octave></pitch><duration>60</duration><voice>1</voice><type>32nd</type></note><note><pitch><step>A</step><octave>4</octave></pitch><duration>120</duration><voice>1</voice><type>16th</type><beam number="1">begin</beam><beam number="2">forward hook</beam></note><note><pitch><step>A</step><octave>4</octave></pitch><duration>240</duration><voice>1</voice><type>eighth</type><beam number="1">continue</beam><notations><articulations><accent/></articulations></notations></note><note><pitch><step>B</step><octave>4</octave></pitch><duration>120</duration><voice>1</voice><type>16th</type><beam number="1">end</beam><beam number="2">backward hook</beam></note><note><pitch><step>D</step><octave>5</octave></pitch><duration>240</duration><voice>1</voice><type>eighth</type></note><note><rest/><duration>120</duration><voice>1</voice><type>16th</type></note><note><pitch><step>E</step><octave>4</octave></pitch><duration>120</duration><voice>1</voice><type>16th</type></note></measure><measure number="7"><print new-system="yes"><system-layout><system-distance>85</system-distance></system-layout></print><note><pitch><step>D</step><octave>4</octave></pitch><duration>120</duration><voice>1</voice><type>16th</type><beam number="1">begin</beam><beam number="2">begin</beam></note><note><pitch><step>E</step><octave>4</octave></pitch><duration>120</duration><voice>1</voice><type>16th</type><beam number="1">continue</beam><beam number="2">continue</beam></note><note><pitch><step>D</step><octave>4</octave></pitch><duration>120</duration><voice>1</voice><type>16th</type><beam number="1">continue</beam><beam number="2">continue</beam></note><note><pitch><step>B</step><octave>3</octave></pitch><duration>120</duration><voice>1</voice><type>16th</type><beam number="1">end</beam><beam number="2">end</beam></note><note><pitch><step>A</step><octave>3</octave></pitch><duration>120</duration><voice>1</voice><type>16th</type><beam number="1">begin</beam><beam number="2">begin</beam></note><note><pitch><step>B</step><octave>3</octave></pitch><duration>120</duration><voice>1</voice><type>16th</type><beam number="1">continue</beam><beam number="2">continue</beam></note><note><pitch><step>D</step><octave>4</octave></pitch><duration>120</duration><voice>1</voice><type>16th</type><beam number="1">end</beam><beam number="2">end</beam></note><note><rest/><duration>60</duration><voice>1</voice><type>32nd</type></note><note><pitch><step>B</step><octave>3</octave></pitch><duration>60</duration><voice>1</voice><type>32nd</type></note><note><pitch><step>A</step><octave>3</octave></pitch><duration>120</duration><voice>1</voice><type>16th</type><beam number="1">begin</beam><beam number="2">begin</beam></note><note><pitch><step>D</step><octave>4</octave></pitch><duration>120</duration><voice>1</voice><type>16th</type><beam number="1">continue</beam><beam number="2">continue</beam></note><note><pitch><step>B</step><octave>3</octave></pitch><duration>120</duration><voice>1</voice><type>16th</type><beam number="1">continue</beam><beam number="2">continue</beam></note><note><pitch><step>A</step><octave>3</octave></pitch><duration>120</duration><voice>1</voice><type>16th</type><beam number="1">end</beam><beam number="2">end</beam></note><note><pitch><step>G</step><octave>3</octave></pitch><duration>240</duration><voice>1</voice><type>eighth</type><beam number="1">begin</beam></note><note><pitch><step>B</step><octave>3</octave></pitch><duration>60</duration><voice>1</voice><type>32nd</type><beam number="1">continue</beam><beam number="2">begin</beam><beam number="3">begin</beam></note><note><pitch><step>C</step><octave>4</octave></pitch><duration>60</duration><voice>1</voice><type>32nd</type><beam number="1">continue</beam><beam number="2">continue</beam><beam number="3">continue</beam></note><note><pitch><step>B</step><octave>3</octave></pitch><duration>60</duration><voice>1</voice><type>32nd</type><beam number="1">continue</beam><beam number="2">continue</beam><beam number="3">continue</beam></note><note><pitch><step>A</step><octave>3</octave></pitch><duration>60</duration><voice>1</voice><type>32nd</type><beam number="1">end</beam><beam number="2">end</beam><beam number="3">end</beam></note></measure><measure number="8"><note><pitch><step>G</step><octave>3</octave></pitch><duration>240</duration><voice>1</voice><type>eighth</type><beam number="1">begin</beam></note><note><pitch><step>D</step><octave>4</octave></pitch><duration>240</duration><voice>1</voice><type>eighth</type><beam number="1">end</beam></note><note><pitch><step>C</step><octave>4</octave></pitch><duration>240</duration><voice>1</voice><type>eighth</type><beam number="1">begin</beam></note><note><pitch><step>D</step><octave>4</octave></pitch><duration>120</duration><voice>1</voice><type>16th</type><dot/><beam number="1">continue</beam><beam number="2">begin</beam></note><note><pitch><step>G</step><octave>4</octave></pitch><duration>60</duration><voice>1</voice><type>32nd</type><beam number="1">end</beam><beam number="2">end</beam><beam number="3">backward hook</beam></note><note><pitch><step>E</step><octave>4</octave></pitch><duration>60</duration><voice>1</voice><type>32nd</type><beam number="1">begin</beam><beam number="2">begin</beam><beam number="3">begin</beam></note><note><pitch><step>G</step><octave>4</octave></pitch><duration>60</duration><voice>1</voice><type>32nd</type><beam number="1">continue</beam><beam number="2">continue</beam><beam number="3">continue</beam></note><note><pitch><step>E</step><octave>4</octave></pitch><duration>60</duration><voice>1</voice><type>32nd</type><beam number="1">continue</beam><beam number="2">continue</beam><beam number="3">continue</beam></note><note><pitch><step>D</step><octave>4</octave></pitch><duration>60</duration><voice>1</voice><type>32nd</type><beam number="1">continue</beam><beam number="2">continue</beam><beam number="3">continue</beam></note><note><pitch><step>C</step><octave>4</octave></pitch><duration>60</duration><voice>1</voice><type>32nd</type><beam number="1">continue</beam><beam number="2">continue</beam><beam number="3">continue</beam></note><note><pitch><step>D</step><octave>4</octave></pitch><duration>60</duration><voice>1</voice><type>32nd</type><beam number="1">continue</beam><beam number="2">continue</beam><beam number="3">end</beam></note><note><pitch><step>B</step><octave>3</octave></pitch><duration>120</duration><voice>1</voice><type>16th</type><beam number="1">end</beam><beam number="2">end</beam></note><note><pitch><step>D</step><octave>4</octave></pitch><duration>240</duration><voice>1</voice><type>eighth</type><beam number="1">begin</beam></note><note><pitch><step>E</step><octave>4</octave></pitch><duration>120</duration><voice>1</voice><type>16th</type><beam number="1">continue</beam><beam number="2">begin</beam></note><note><pitch><step>G</step><octave>4</octave></pitch><duration>120</duration><voice>1</voice><type>16th</type><beam number="1">end</beam><beam number="2">end</beam></note></measure><measure number="9"><print new-system="yes"><system-layout><system-distance>85</system-distance></system-layout></print><note><pitch><step>D</step><octave>4</octave></pitch><duration>120</duration><voice>1</voice><type>16th</type><beam number="1">begin</beam><beam number="2">begin</beam></note><note><pitch><step>E</step><octave>4</octave></pitch><duration>120</duration><voice>1</voice><type>16th</type><beam number="1">continue</beam><beam number="2">end</beam></note><note><pitch><step>B</step><octave>3</octave></pitch><duration>240</duration><voice>1</voice><type>eighth</type><beam number="1">end</beam></note><note><pitch><step>D</step><octave>4</octave></pitch><duration>120</duration><voice>1</voice><type>16th</type><beam number="1">begin</beam><beam number="2">begin</beam></note><note><pitch><step>B</step><octave>3</octave></pitch><duration>120</duration><voice>1</voice><type>16th</type><beam number="1">continue</beam><beam number="2">continue</beam></note><note><pitch><step>D</step><octave>4</octave></pitch><duration>120</duration><voice>1</voice><type>16th</type><beam number="1">continue</beam><beam number="2">continue</beam></note><note><pitch><step>E</step><octave>4</octave></pitch><duration>120</duration><voice>1</voice><type>16th</type><beam number="1">end</beam><beam number="2">end</beam></note><note><pitch><step>G</step><octave>4</octave></pitch><duration>120</duration><voice>1</voice><type>16th</type><beam number="1">begin</beam><beam number="2">forward hook</beam></note><note><pitch><step>C</step><octave>5</octave></pitch><duration>240</duration><voice>1</voice><type>eighth</type><beam number="1">continue</beam><notations><articulations><accent/></articulations></notations></note><note><pitch><step>A</step><octave>4</octave></pitch><duration>120</duration><voice>1</voice><type>16th</type><beam number="1">end</beam><beam number="2">backward hook</beam></note><note><pitch><step>G</step><octave>4</octave></pitch><duration>120</duration><voice>1</voice><type>16th</type><beam number="1">begin</beam><beam number="2">forward hook</beam></note><note><pitch><step>C</step><octave>5</octave></pitch><duration>240</duration><voice>1</voice><type>eighth</type><beam number="1">continue</beam><notations><articulations><accent/></articulations></notations></note><note><pitch><step>A</step><octave>4</octave></pitch><duration>120</duration><voice>1</voice><type>16th</type><beam number="1">end</beam><beam number="2">backward hook</beam></note></measure><measure number="10"><note><pitch><step>G</step><octave>4</octave></pitch><duration>240</duration><voice>1</voice><type>eighth</type><dot/><beam number="1">begin</beam></note><note><pitch><step>A</step><octave>4</octave></pitch><duration>120</duration><voice>1</voice><type>16th</type><beam number="1">end</beam><beam number="2">backward hook</beam></note><note><pitch><step>G</step><octave>4</octave></pitch><duration>120</duration><voice>1</voice><type>16th</type><beam number="1">begin</beam><beam number="2">begin</beam></note><note><pitch><step>A</step><octave>4</octave></pitch><duration>120</duration><voice>1</voice><type>16th</type><beam number="1">continue</beam><beam number="2">end</beam></note><note><pitch><step>E</step><octave>4</octave></pitch><duration>240</duration><voice>1</voice><type>eighth</type><beam number="1">end</beam></note><note><pitch><step>G</step><octave>4</octave></pitch><duration>120</duration><voice>1</voice><type>16th</type><beam number="1">begin</beam><beam number="2">begin</beam></note><note><pitch><step>E</step><octave>4</octave></pitch><duration>120</duration><voice>1</voice><type>16th</type><beam number="1">continue</beam><beam number="2">continue</beam></note><note><pitch><step>G</step><octave>4</octave></pitch><duration>120</duration><voice>1</voice><type>16th</type><beam number="1">continue</beam><beam number="2">continue</beam></note><note><pitch><step>A</step><octave>4</octave></pitch><duration>120</duration><voice>1</voice><type>16th</type><beam number="1">end</beam><beam number="2">end</beam></note><note><pitch><step>C</step><octave>5</octave></pitch><duration>240</duration><voice>1</voice><type>eighth</type><beam number="1">begin</beam></note><note><pitch><step>A</step><octave>4</octave></pitch><duration>60</duration><voice>1</voice><type>32nd</type><beam number="1">continue</beam><beam number="2">begin</beam><beam number="3">begin</beam></note><note><pitch><step>B</step><octave>4</octave></pitch><duration>60</duration><voice>1</voice><type>32nd</type><beam number="1">continue</beam><beam number="2">continue</beam><beam number="3">continue</beam></note><note><pitch><step>A</step><octave>4</octave></pitch><duration>60</duration><voice>1</voice><type>32nd</type><beam number="1">continue</beam><beam number="2">continue</beam><beam number="3">continue</beam></note><note><pitch><step>G</step><octave>4</octave></pitch><duration>60</duration><voice>1</voice><type>32nd</type><beam number="1">end</beam><beam number="2">end</beam><beam number="3">end</beam></note></measure><measure number="11"><print new-system="yes"><system-layout><system-distance>85</system-distance></system-layout></print><note><pitch><step>E</step><octave>4</octave></pitch><duration>240</duration><voice>1</voice><type>eighth</type><beam number="1">begin</beam></note><note><pitch><step>C</step><octave>5</octave></pitch><duration>240</duration><voice>1</voice><type>eighth</type><beam number="1">end</beam></note><note><pitch><step>E</step><octave>4</octave></pitch><duration>120</duration><voice>1</voice><type>16th</type><beam number="1">begin</beam><beam number="2">forward hook</beam></note><note><pitch><step>C</step><octave>5</octave></pitch><duration>240</duration><voice>1</voice><type>eighth</type><beam number="1">continue</beam><notations><articulations><accent/></articulations></notations></note><note><pitch><step>B</step><octave>4</octave></pitch><duration>120</duration><voice>1</voice><type>16th</type><beam number="1">end</beam><beam number="2">backward hook</beam></note><note><pitch><step>A</step><octave>4</octave></pitch><duration>240</duration><voice>1</voice><type>eighth</type><dot/><beam number="1">begin</beam></note><note><pitch><step>B</step><octave>4</octave></pitch><duration>120</duration><voice>1</voice><type>16th</type><beam number="1">end</beam><beam number="2">backward hook</beam></note><note><pitch><step>A</step><octave>4</octave></pitch><duration>240</duration><voice>1</voice><type>eighth</type><beam number="1">begin</beam></note><note><pitch><step>B</step><octave>4</octave></pitch><duration>240</duration><voice>1</voice><type>eighth</type><beam number="1">end</beam></note></measure><measure number="12"><note><pitch><step>A</step><octave>4</octave></pitch><duration>120</duration><voice>1</voice><type>16th</type><beam number="1">begin</beam><beam number="2">forward hook</beam></note><note><pitch><step>B</step><octave>4</octave></pitch><duration>240</duration><voice>1</voice><type>eighth</type><beam number="1">continue</beam><notations><articulations><accent/></articulations></notations></note><note><pitch><step>A</step><octave>4</octave></pitch><duration>120</duration><voice>1</voice><type>16th</type><beam number="1">end</beam><beam number="2">backward hook</beam></note><note><pitch><step>G</step><octave>4</octave></pitch><duration>240</duration><voice>1</voice><type>eighth</type><beam number="1">begin</beam></note><note><pitch><step>A</step><octave>4</octave></pitch><duration>60</duration><voice>1</voice><type>32nd</type><beam number="1">continue</beam><beam number="2">begin</beam><beam number="3">begin</beam></note><note><pitch><step>G</step><octave>4</octave></pitch><duration>60</duration><voice>1</voice><type>32nd</type><beam number="1">continue</beam><beam number="2">continue</beam><beam number="3">continue</beam></note><note><pitch><step>A</step><octave>4</octave></pitch><duration>60</duration><voice>1</voice><type>32nd</type><beam number="1">continue</beam><beam number="2">continue</beam><beam number="3">continue</beam></note><note><pitch><step>C</step><octave>5</octave></pitch><duration>60</duration><voice>1</voice><type>32nd</type><beam number="1">end</beam><beam number="2">end</beam><beam number="3">end</beam></note><note><pitch><step>G</step><octave>4</octave></pitch><duration>120</duration><voice>1</voice><type>16th</type><beam number="1">begin</beam><beam number="2">begin</beam></note><note><pitch><step>A</step><octave>4</octave></pitch><duration>120</duration><voice>1</voice><type>16th</type><beam number="1">continue</beam><beam number="2">end</beam></note><note><pitch><step>C</step><octave>4</octave></pitch><duration>240</duration><voice>1</voice><type>eighth</type><beam number="1">end</beam></note><note><pitch><step>G</step><octave>4</octave></pitch><duration>120</duration><voice>1</voice><type>16th</type><beam number="1">begin</beam><beam number="2">forward hook</beam></note><note><pitch><step>C</step><octave>4</octave></pitch><duration>240</duration><voice>1</voice><type>eighth</type><beam number="1">continue</beam></note><note><pitch><step>D</step><octave>4</octave></pitch><duration>120</duration><voice>1</voice><type>16th</type><beam number="1">end</beam><beam number="2">backward hook</beam></note></measure><measure number="13"><note><pitch><step>E</step><octave>4</octave></pitch><duration>240</duration><voice>1</voice><type>eighth</type><beam number="1">begin</beam></note><note><pitch><step>C</step><octave>4</octave></pitch><duration>120</duration><voice>1</voice><type>16th</type><beam number="1">continue</beam><beam number="2">begin</beam></note><note><pitch><step>D</step><octave>4</octave></pitch><duration>120</duration><voice>1</voice><type>16th</type><beam number="1">end</beam><beam number="2">end</beam></note><note><pitch><step>E</step><octave>4</octave></pitch><duration>120</duration><voice>1</voice><type>16th</type><beam number="1">begin</beam><beam number="2">forward hook</beam></note><note><pitch><step>C</step><octave>4</octave></pitch><duration>240</duration><voice>1</voice><type>eighth</type><beam number="1">continue</beam></note><note><pitch><step>D</step><octave>4</octave></pitch><duration>120</duration><voice>1</voice><type>16th</type><beam number="1">end</beam><beam number="2">backward hook</beam></note><note><pitch><step>E</step><octave>4</octave></pitch><duration>120</duration><voice>1</voice><type>16th</type><beam number="1">begin</beam><beam number="2">forward hook</beam></note><note><pitch><step>A</step><octave>4</octave></pitch><duration>240</duration><voice>1</voice><type>eighth</type><beam number="1">continue</beam></note><note><pitch><step>G</step><octave>4</octave></pitch><duration>120</duration><voice>1</voice><type>16th</type><beam number="1">end</beam><beam number="2">backward hook</beam></note><note><pitch><step>F</step><octave>4</octave></pitch><duration>120</duration><voice>1</voice><type>16th</type><beam number="1">begin</beam><beam number="2">begin</beam></note><note><pitch><step>G</step><octave>4</octave></pitch><duration>120</duration><voice>1</voice><type>16th</type><beam number="1">continue</beam><beam number="2">end</beam></note><note><pitch><step>E</step><octave>4</octave></pitch><duration>240</duration><voice>1</voice><type>eighth</type><beam number="1">end</beam></note></measure><measure number="14"><print new-system="yes"><system-layout><system-distance>85</system-distance></system-layout></print><note><rest/><duration>120</duration><voice>1</voice><type>16th</type></note><note><pitch><step>A</step><octave>4</octave></pitch><duration>240</duration><voice>1</voice><type>eighth</type><beam number="1">begin</beam></note><note><pitch><step>E</step><octave>4</octave></pitch><duration>120</duration><voice>1</voice><type>16th</type><beam number="1">end</beam><beam number="2">backward hook</beam></note><note><pitch><step>G</step><octave>4</octave></pitch><duration>240</duration><voice>1</voice><type>eighth</type><dot/><beam number="1">begin</beam></note><note><pitch><step>D</step><octave>5</octave></pitch><duration>120</duration><voice>1</voice><type>16th</type><beam number="1">end</beam><beam number="2">backward hook</beam></note><note><pitch><step>C</step><octave>5</octave></pitch><duration>120</duration><voice>1</voice><type>16th</type><beam number="1">begin</beam><beam number="2">begin</beam></note><note><pitch><step>D</step><octave>5</octave></pitch><duration>120</duration><voice>1</voice><type>16th</type><beam number="1">continue</beam><beam number="2">continue</beam></note><note><pitch><step>B</step><octave>4</octave></pitch><duration>120</duration><voice>1</voice><type>16th</type><beam number="1">continue</beam><beam number="2">continue</beam></note><note><pitch><step>A</step><octave>4</octave></pitch><duration>120</duration><voice>1</voice><type>16th</type><beam number="1">end</beam><beam number="2">end</beam></note><note><pitch><step>G</step><octave>4</octave></pitch><duration>120</duration><voice>1</voice><type>16th</type><beam number="1">begin</beam><beam number="2">begin</beam></note><note><pitch><step>C</step><octave>5</octave></pitch><duration>120</duration><voice>1</voice><type>16th</type><beam number="1">continue</beam><beam number="2">continue</beam></note><note><pitch><step>B</step><octave>4</octave></pitch><duration>120</duration><voice>1</voice><type>16th</type><beam number="1">continue</beam><beam number="2">continue</beam></note><note><pitch><step>A</step><octave>4</octave></pitch><duration>120</duration><voice>1</voice><type>16th</type><beam number="1">end</beam><beam number="2">end</beam></note></measure><measure number="15"><note><pitch><step>G</step><octave>4</octave></pitch><duration>240</duration><voice>1</voice><type>eighth</type></note><note><rest/><duration>120</duration><voice>1</voice><type>16th</type></note><note><pitch><step>A</step><octave>4</octave></pitch><duration>120</duration><voice>1</voice><type>16th</type></note><note><pitch><step>G</step><octave>4</octave></pitch><duration>120</duration><voice>1</voice><type>16th</type><beam number="1">begin</beam><beam number="2">begin</beam></note><note><pitch><step>A</step><octave>4</octave></pitch><duration>120</duration><voice>1</voice><type>16th</type><beam number="1">continue</beam><beam number="2">continue</beam></note><note><pitch><step>G</step><octave>4</octave></pitch><duration>60</duration><voice>1</voice><type>32nd</type><beam number="1">continue</beam><beam number="2">continue</beam><beam number="3">begin</beam></note><note><pitch><step>A</step><octave>4</octave></pitch><duration>60</duration><voice>1</voice><type>32nd</type><beam number="1">continue</beam><beam number="2">continue</beam><beam number="3">continue</beam></note><note><pitch><step>G</step><octave>4</octave></pitch><duration>60</duration><voice>1</voice><type>32nd</type><beam number="1">continue</beam><beam number="2">continue</beam><beam number="3">continue</beam></note><note><pitch><step>E</step><octave>4</octave></pitch><duration>60</duration><voice>1</voice><type>32nd</type><beam number="1">end</beam><beam number="2">end</beam><beam number="3">end</beam></note><note><pitch><step>D</step><octave>4</octave></pitch><duration>120</duration><voice>1</voice><type>16th</type><beam number="1">begin</beam><beam number="2">begin</beam></note><note><pitch><step>E</step><octave>4</octave></pitch><duration>120</duration><voice>1</voice><type>16th</type><beam number="1">continue</beam><beam number="2">continue</beam></note><note><pitch><step>G</step><octave>4</octave></pitch><duration>120</duration><voice>1</voice><type>16th</type><dot/><beam number="1">continue</beam><beam number="2">continue</beam></note><note><pitch><step>E</step><octave>4</octave></pitch><duration>60</duration><voice>1</voice><type>32nd</type><beam number="1">end</beam><beam number="2">end</beam><beam number="3">backward hook</beam></note><note><pitch><step>D</step><octave>4</octave></pitch><duration>120</duration><voice>1</voice><type>16th</type><beam number="1">begin</beam><beam number="2">begin</beam></note><note><pitch><step>E</step><octave>4</octave></pitch><duration>60</duration><voice>1</voice><type>32nd</type><beam number="1">continue</beam><beam number="2">continue</beam><beam number="3">begin</beam></note><note><pitch><step>F</step><octave>4</octave></pitch><duration>60</duration><voice>1</voice><type>32nd</type><beam number="1">continue</beam><beam number="2">continue</beam><beam number="3">end</beam></note><note><pitch><step>E</step><octave>4</octave></pitch><duration>120</duration><voice>1</voice><type>16th</type><beam number="1">continue</beam><beam number="2">continue</beam></note><note><pitch><step>D</step><octave>4</octave></pitch><duration>120</duration><voice>1</voice><type>16th</type><beam number="1">end</beam><beam number="2">end</beam></note></measure><measure number="16"><print new-system="yes"><system-layout><system-distance>85</system-distance></system-layout></print><note><pitch><step>C</step><octave>4</octave></pitch><duration>240</duration><voice>1</voice><type>eighth</type><beam number="1">begin</beam></note><note><pitch><step>C</step><octave>4</octave></pitch><duration>60</duration><voice>1</voice><type>32nd</type><beam number="1">continue</beam><beam number="2">begin</beam><beam number="3">begin</beam></note><note><pitch><step>D</step><octave>4</octave></pitch><duration>60</duration><voice>1</voice><type>32nd</type><beam number="1">continue</beam><beam number="2">continue</beam><beam number="3">continue</beam></note><note><pitch><step>C</step><octave>4</octave></pitch><duration>60</duration><voice>1</voice><type>32nd</type><beam number="1">continue</beam><beam number="2">continue</beam><beam number="3">continue</beam></note><note><pitch><step>B</step><octave>3</octave></pitch><duration>60</duration><voice>1</voice><type>32nd</type><beam number="1">end</beam><beam number="2">end</beam><beam number="3">end</beam></note><note><pitch><step>A</step><octave>3</octave></pitch><duration>120</duration><voice>1</voice><type>16th</type><beam number="1">begin</beam><beam number="2">forward hook</beam></note><note><pitch><step>F</step><octave>4</octave></pitch><duration>240</duration><voice>1</voice><type>eighth</type><beam number="1">continue</beam></note><note><pitch><step>D</step><octave>4</octave></pitch><duration>120</duration><voice>1</voice><type>16th</type><beam number="1">end</beam><beam number="2">backward hook</beam></note><note><pitch><step>C</step><octave>4</octave></pitch><duration>240</duration><voice>1</voice><type>eighth</type><dot/><beam number="1">begin</beam></note><note><pitch><step>D</step><octave>4</octave></pitch><duration>120</duration><voice>1</voice><type>16th</type><beam number="1">end</beam><beam number="2">backward hook</beam></note><note><pitch><step>C</step><octave>4</octave></pitch><duration>120</duration><voice>1</voice><type>16th</type><beam number="1">begin</beam><beam number="2">forward hook</beam></note><note><pitch><step>C</step><octave>4</octave></pitch><duration>240</duration><voice>1</voice><type>eighth</type><beam number="1">continue</beam></note><note><pitch><step>D</step><octave>4</octave></pitch><duration>120</duration><voice>1</voice><type>16th</type><beam number="1">end</beam><beam number="2">backward hook</beam></note></measure><measure number="17"><note><pitch><step>F</step><octave>4</octave></pitch><duration>120</duration><voice>1</voice><type>16th</type><beam number="1">begin</beam><beam number="2">begin</beam></note><note><pitch><step>G</step><octave>4</octave></pitch><duration>120</duration><voice>1</voice><type>16th</type><beam number="1">continue</beam><beam number="2">continue</beam></note><note><pitch><step>F</step><octave>4</octave></pitch><duration>120</duration><voice>1</voice><type>16th</type><beam number="1">continue</beam><beam number="2">continue</beam></note><note><pitch><step>D</step><octave>4</octave></pitch><duration>120</duration><voice>1</voice><type>16th</type><beam number="1">end</beam><beam number="2">end</beam></note><note><pitch><step>C</step><octave>4</octave></pitch><duration>120</duration><voice>1</voice><type>16th</type><beam number="1">begin</beam><beam number="2">begin</beam></note><note><pitch><step>D</step><octave>4</octave></pitch><duration>120</duration><voice>1</voice><type>16th</type><beam number="1">continue</beam><beam number="2">end</beam></note><note><pitch><step>F</step><octave>4</octave></pitch><duration>240</duration><voice>1</voice><type>eighth</type><beam number="1">end</beam></note><note><pitch><step>D</step><octave>4</octave></pitch><duration>120</duration><voice>1</voice><type>16th</type><beam number="1">begin</beam><beam number="2">begin</beam></note><note><pitch><step>F</step><octave>4</octave></pitch><duration>120</duration><voice>1</voice><type>16th</type><beam number="1">continue</beam><beam number="2">continue</beam></note><note><pitch><step>D</step><octave>4</octave></pitch><duration>60</duration><voice>1</voice><type>32nd</type><beam number="1">continue</beam><beam number="2">continue</beam><beam number="3">begin</beam></note><note><pitch><step>F</step><octave>4</octave></pitch><duration>60</duration><voice>1</voice><type>32nd</type><beam number="1">continue</beam><beam number="2">continue</beam><beam number="3">continue</beam></note><note><pitch><step>D</step><octave>4</octave></pitch><duration>60</duration><voice>1</voice><type>32nd</type><beam number="1">continue</beam><beam number="2">continue</beam><beam number="3">continue</beam></note><note><pitch><step>C</step><octave>4</octave></pitch><duration>60</duration><voice>1</voice><type>32nd</type><beam number="1">end</beam><beam number="2">end</beam><beam number="3">end</beam></note><note><pitch><step>A</step><octave>3</octave></pitch><duration>120</duration><voice>1</voice><type>16th</type><beam number="1">begin</beam><beam number="2">begin</beam></note><note><pitch><step>B</step><octave>3</octave></pitch><duration>120</duration><voice>1</voice><type>16th</type><beam number="1">continue</beam><beam number="2">end</beam></note><note><pitch><step>A</step><octave>3</octave></pitch><duration>240</duration><voice>1</voice><type>eighth</type><beam number="1">end</beam></note></measure><measure number="18"><print new-system="yes"><system-layout><system-distance>85</system-distance></system-layout></print><note><rest/><duration>240</duration><voice>1</voice><type>eighth</type></note><note><pitch><step>D</step><octave>4</octave></pitch><duration>120</duration><voice>1</voice><type>16th</type><beam number="1">begin</beam><beam number="2">begin</beam></note><note><pitch><step>B</step><octave>3</octave></pitch><duration>120</duration><voice>1</voice><type>16th</type><beam number="1">end</beam><beam number="2">end</beam></note><note><pitch><step>A</step><octave>3</octave></pitch><duration>120</duration><voice>1</voice><type>16th</type><beam number="1">begin</beam><beam number="2">begin</beam></note><note><pitch><step>C</step><octave>4</octave></pitch><duration>120</duration><voice>1</voice><type>16th</type><beam number="1">continue</beam><beam number="2">continue</beam></note><note><pitch><step>D</step><octave>4</octave></pitch><duration>120</duration><voice>1</voice><type>16th</type><beam number="1">continue</beam><beam number="2">continue</beam></note><note><pitch><step>E</step><octave>4</octave></pitch><duration>120</duration><voice>1</voice><type>16th</type><beam number="1">end</beam><beam number="2">end</beam></note><note><pitch><step>D</step><octave>4</octave></pitch><duration>120</duration><voice>1</voice><type>16th</type><beam number="1">begin</beam><beam number="2">begin</beam></note><note><pitch><step>B</step><octave>3</octave></pitch><duration>120</duration><voice>1</voice><type>16th</type><beam number="1">continue</beam><beam number="2">continue</beam></note><note><pitch><step>A</step><octave>3</octave></pitch><duration>120</duration><voice>1</voice><type>16th</type><beam number="1">continue</beam><beam number="2">continue</beam></note><note><pitch><step>C</step><octave>4</octave></pitch><duration>120</duration><voice>1</voice><type>16th</type><beam number="1">end</beam><beam number="2">end</beam></note><note><pitch><step>G</step><octave>3</octave></pitch><duration>120</duration><voice>1</voice><type>16th</type><beam number="1">begin</beam><beam number="2">begin</beam></note><note><pitch><step>A</step><octave>3</octave></pitch><duration>120</duration><voice>1</voice><type>16th</type><beam number="1">continue</beam><beam number="2">end</beam></note><note><pitch><step>G</step><octave>3</octave></pitch><duration>240</duration><voice>1</voice><type>eighth</type><beam number="1">end</beam></note></measure><measure number="19"><note><rest/><duration>240</duration><voice>1</voice><type>eighth</type></note><note><pitch><step>B</step><octave>4</octave></pitch><duration>240</duration><voice>1</voice><type>eighth</type></note><note><pitch><step>A</step><octave>4</octave></pitch><duration>240</duration><voice>1</voice><type>eighth</type><dot/><beam number="1">begin</beam></note><note><pitch><step>B</step><octave>4</octave></pitch><duration>120</duration><voice>1</voice><type>16th</type><beam number="1">end</beam><beam number="2">backward hook</beam></note><note><pitch><step>A</step><octave>4</octave></pitch><duration>120</duration><voice>1</voice><type>16th</type><beam number="1">begin</beam><beam number="2">begin</beam></note><note><pitch><step>B</step><octave>4</octave></pitch><duration>120</duration><voice>1</voice><type>16th</type><beam number="1">continue</beam><beam number="2">continue</beam></note><note><pitch><step>A</step><octave>4</octave></pitch><duration>120</duration><voice>1</voice><type>16th</type><beam number="1">continue</beam><beam number="2">continue</beam></note><note><pitch><step>G</step><octave>4</octave></pitch><duration>120</duration><voice>1</voice><type>16th</type><beam number="1">end</beam><beam number="2">end</beam></note><note><pitch><step>F</step><octave>4</octave></pitch><duration>240</duration><voice>1</voice><type>eighth</type><beam number="1">begin</beam></note><note><pitch><step>G</step><octave>4</octave></pitch><duration>120</duration><voice>1</voice><type>16th</type><dot/><beam number="1">continue</beam><beam number="2">begin</beam></note><note><pitch><step>F</step><octave>4</octave></pitch><duration>60</duration><voice>1</voice><type>32nd</type><beam number="1">end</beam><beam number="2">end</beam><beam number="3">backward hook</beam></note></measure><measure number="20"><note><pitch><step>D</step><octave>4</octave></pitch><duration>120</duration><voice>1</voice><type>16th</type><beam number="1">begin</beam><beam number="2">begin</beam></note><note><pitch><step>C</step><octave>4</octave></pitch><duration>120</duration><voice>1</voice><type>16th</type><beam number="1">continue</beam><beam number="2">continue</beam></note><note><pitch><step>D</step><octave>4</octave></pitch><duration>120</duration><voice>1</voice><type>16th</type><beam number="1">continue</beam><beam number="2">continue</beam></note><note><pitch><step>F</step><octave>4</octave></pitch><duration>120</duration><voice>1</voice><type>16th</type><beam number="1">end</beam><beam number="2">end</beam></note><note><pitch><step>G</step><octave>4</octave></pitch><duration>240</duration><voice>1</voice><type>eighth</type><dot/><beam number="1">begin</beam></note><note><pitch><step>B</step><octave>4</octave></pitch><duration>120</duration><voice>1</voice><type>16th</type><beam number="1">end</beam><beam number="2">backward hook</beam></note><note><pitch><step>A</step><octave>4</octave></pitch><duration>120</duration><voice>1</voice><type>16th</type><beam number="1">begin</beam><beam number="2">begin</beam></note><note><pitch><step>G</step><octave>4</octave></pitch><duration>120</duration><voice>1</voice><type>16th</type><beam number="1">continue</beam><beam number="2">continue</beam></note><note><pitch><step>A</step><octave>4</octave></pitch><duration>120</duration><voice>1</voice><type>16th</type><beam number="1">continue</beam><beam number="2">continue</beam></note><note><pitch><step>C</step><octave>5</octave></pitch><duration>120</duration><voice>1</voice><type>16th</type><beam number="1">end</beam><beam number="2">end</beam></note><note><pitch><step>G</step><octave>4</octave></pitch><duration>120</duration><voice>1</voice><type>16th</type><beam number="1">begin</beam><beam number="2">begin</beam></note><note><pitch><step>A</step><octave>4</octave></pitch><duration>120</duration><voice>1</voice><type>16th</type><beam number="1">continue</beam><beam number="2">continue</beam></note><note><pitch><step>C</step><octave>5</octave></pitch><duration>120</duration><voice>1</voice><type>16th</type><beam number="1">continue</beam><beam number="2">continue</beam></note><note><pitch><step>B</step><octave>4</octave></pitch><duration>120</duration><voice>1</voice><type>16th</type><beam number="1">end</beam><beam number="2">end</beam></note></measure><measure number="21"><print new-system="yes"><system-layout><system-distance>85</system-distance></system-layout></print><note><pitch><step>A</step><octave>4</octave></pitch><duration>120</duration><voice>1</voice><type>16th</type><beam number="1">begin</beam><beam number="2">begin</beam></note><note><pitch><step>G</step><octave>4</octave></pitch><duration>120</duration><voice>1</voice><type>16th</type><beam number="1">continue</beam><beam number="2">continue</beam></note><note><pitch><step>F</step><octave>4</octave></pitch><duration>120</duration><voice>1</voice><type>16th</type><beam number="1">continue</beam><beam number="2">continue</beam></note><note><pitch><step>D</step><octave>4</octave></pitch><duration>120</duration><voice>1</voice><type>16th</type><beam number="1">end</beam><beam number="2">end</beam></note><note><pitch><step>G</step><octave>4</octave></pitch><duration>240</duration><voice>1</voice><type>eighth</type><beam number="1">begin</beam></note><note><pitch><step>G</step><octave>4</octave></pitch><duration>120</duration><voice>1</voice><type>16th</type><beam number="1">continue</beam><beam number="2">begin</beam></note><note><pitch><step>F</step><octave>4</octave></pitch><duration>120</duration><voice>1</voice><type>16th</type><beam number="1">end</beam><beam number="2">end</beam></note><note><pitch><step>D</step><octave>4</octave></pitch><duration>120</duration><voice>1</voice><type>16th</type><beam number="1">begin</beam><beam number="2">begin</beam></note><note><pitch><step>C</step><octave>4</octave></pitch><duration>120</duration><voice>1</voice><type>16th</type><beam number="1">continue</beam><beam number="2">continue</beam></note><note><pitch><step>D</step><octave>4</octave></pitch><duration>120</duration><voice>1</voice><type>16th</type><beam number="1">continue</beam><beam number="2">continue</beam></note><note><pitch><step>F</step><octave>4</octave></pitch><duration>120</duration><voice>1</voice><type>16th</type><beam number="1">end</beam><beam number="2">end</beam></note><note><pitch><step>G</step><octave>4</octave></pitch><duration>120</duration><voice>1</voice><type>16th</type><beam number="1">begin</beam><beam number="2">begin</beam></note><note><pitch><step>A</step><octave>4</octave></pitch><duration>120</duration><voice>1</voice><type>16th</type><beam number="1">continue</beam><beam number="2">end</beam></note><note><pitch><step>F</step><octave>4</octave></pitch><duration>240</duration><voice>1</voice><type>eighth</type><beam number="1">end</beam></note></measure><measure number="22"><note><pitch><step>G</step><octave>4</octave></pitch><duration>480</duration><voice>1</voice><type>quarter</type><notations><tied type="start"/></notations></note><note><pitch><step>G</step><octave>4</octave></pitch><duration>240</duration><voice>1</voice><type>eighth</type><beam number="1">begin</beam><notations><tied type="stop"/></notations></note><note><pitch><step>A</step><octave>4</octave></pitch><duration>120</duration><voice>1</voice><type>16th</type><beam number="1">continue</beam><beam number="2">begin</beam></note><note><pitch><step>G</step><octave>4</octave></pitch><duration>120</duration><voice>1</voice><type>16th</type><beam number="1">end</beam><beam number="2">end</beam></note><note><pitch><step>F</step><octave>4</octave></pitch><duration>240</duration><voice>1</voice><type>eighth</type><beam number="1">begin</beam></note><note><pitch><step>A</step><octave>4</octave></pitch><duration>240</duration><voice>1</voice><type>eighth</type><beam number="1">end</beam></note><note><pitch><step>G</step><octave>4</octave></pitch><duration>120</duration><voice>1</voice><type>16th</type><beam number="1">begin</beam><beam number="2">begin</beam></note><note><pitch><step>F</step><octave>4</octave></pitch><duration>120</duration><voice>1</voice><type>16th</type><beam number="1">continue</beam><beam number="2">continue</beam></note><note><pitch><step>G</step><octave>4</octave></pitch><duration>120</duration><voice>1</voice><type>16th</type><beam number="1">continue</beam><beam number="2">continue</beam></note><note><pitch><step>A</step><octave>4</octave></pitch><duration>120</duration><voice>1</voice><type>16th</type><beam number="1">end</beam><beam number="2">end</beam></note><barline location="right"><bar-style>light-heavy</bar-style><repeat direction="backward"/></barline></measure><measure number="23"><note><pitch><step>G</step><octave>4</octave></pitch><duration>480</duration><voice>1</voice><type>half</type></note><note><rest/><duration>480</duration><voice>1</voice><type>quarter</type></note><note><rest/><duration>480</duration><voice>1</voice><type>quarter</type></note><barline><bar-style>light-heavy</bar-style></barline></measure></part></score-partwise>
